<svg width="1074" height="603" viewBox="0 0 1074 603" fill="none" xmlns="http://www.w3.org/2000/svg">
<path fill-rule="evenodd" clip-rule="evenodd" d="M228.31 3.96867C212.972 8.54258 200.003 17.7553 189.253 30.2043C183.748 36.578 179.178 43.3963 175.485 50.2171L175.103 50.9294C174.099 52.8154 173.224 54.591 172.473 56.2281L172.279 56.6531L172.036 56.5626C151.771 49.0254 133.787 48.5913 118.059 54.282C104.608 59.1487 93.4173 68.2421 84.291 80.2983C79.3978 86.7623 75.4065 93.6733 72.2416 100.585L71.9143 101.307C71.056 103.217 70.3131 105.015 69.6813 106.672L69.358 107.532L69.3435 107.53C46.4243 104.979 27.871 109.022 13.545 118.498C-11.1171 134.717 0.498785 173.1 30 173.1H521.7C523.493 173.1 524.886 171.537 524.68 169.756L524.623 169.315C524.545 168.753 524.415 167.953 524.221 166.944C523.808 164.792 523.237 162.403 522.482 159.834C520.328 152.506 517.128 145.177 512.666 138.32C505.965 128.023 497.008 119.729 485.505 114.205L484.879 113.909C471.901 107.84 456.218 105.518 437.638 107.505L437.341 107.538L437.247 107.284C436.49 105.256 435.561 103.002 434.45 100.579C431.28 93.6632 427.284 86.7488 422.389 80.2814C413.253 68.2112 402.057 59.109 388.608 54.2418L388.031 54.0363C372.64 48.6318 355.112 49.0753 335.424 56.2762L334.412 56.6521L334.493 56.8284C333.588 54.8256 332.487 52.6009 331.186 50.2092C327.473 43.3875 322.884 36.5683 317.363 30.1939C311.936 23.9283 305.883 18.4281 299.176 13.9117C299.074 13.8433 298.968 13.7811 298.859 13.7256L292.759 10.6256L292.598 10.5497C268.624 0.106457 247.2 -1.66423 228.31 3.96867ZM290.125 16.0171L295.969 18.9871L295.824 18.8885C302.069 23.0936 307.732 28.2394 312.827 34.1222C318.046 40.1474 322.398 46.6136 325.915 53.0772C327.144 55.3354 328.18 57.4284 329.026 59.3006L329.433 60.217C329.557 60.5029 329.67 60.769 329.772 61.0144L329.999 61.5736C330.599 63.1401 332.367 63.9099 333.923 63.282C354.061 55.1537 371.509 54.4346 386.566 59.8837C398.819 64.318 409.12 72.6928 417.605 83.9026C422.216 89.995 425.997 96.5375 428.996 103.079C430.044 105.366 430.918 107.486 431.626 109.382L431.965 110.31C432.034 110.504 432.099 110.688 432.159 110.863L432.434 111.686C432.864 113.079 434.234 113.96 435.68 113.776C454.649 111.356 470.271 113.547 482.907 119.614C493.366 124.636 501.509 132.177 507.637 141.593C511.757 147.924 514.727 154.725 516.726 161.526L516.93 162.234C517.329 163.639 517.666 164.979 517.948 166.242L518.132 167.1H30C6.44206 167.1 -2.83346 136.451 16.8485 123.507C30.4373 114.519 48.3485 110.83 71.0135 113.775C72.4021 113.956 73.7217 113.152 74.2082 111.856L74.4531 111.117L74.6339 110.592C74.7307 110.316 74.837 110.02 74.953 109.704L75.0722 109.382C75.778 107.487 76.6505 105.368 77.6968 103.083C80.6902 96.546 84.4661 90.008 89.0749 83.9197C97.5497 72.7241 107.846 64.358 120.1 59.9241C135.16 54.4753 152.619 55.1824 172.782 63.2838C174.339 63.9097 176.107 63.1356 176.704 61.5666L176.929 61.0078L177.146 60.4899C177.301 60.1266 177.475 59.7275 177.67 59.2947C178.51 57.4233 179.54 55.3311 180.762 53.0737C184.26 46.6125 188.592 40.1488 193.794 34.1259C203.845 22.4869 215.882 13.9359 230.025 9.71848C247.312 4.56349 267.032 6.11854 289.429 15.7163L290.125 16.0171Z" fill="#EB5757"/>
<path fill-rule="evenodd" clip-rule="evenodd" d="M529.191 446.607C530.513 445.608 532.395 445.87 533.394 447.192C534.392 448.513 534.131 450.395 532.809 451.394C527.91 455.096 523.404 459.394 519.284 464.173C514.12 470.164 509.816 476.593 506.339 483.02C505.245 485.041 504.307 486.928 503.521 488.643L503.264 489.208C503.022 489.746 502.812 490.231 502.632 490.661L502.384 491.264C502.347 491.357 502.32 491.425 502.304 491.467C501.707 493.036 499.939 493.81 498.382 493.184C478.219 485.082 460.759 484.375 445.7 489.824C433.446 494.258 423.15 502.624 414.675 513.82C410.066 519.908 406.29 526.446 403.297 532.983C402.355 535.04 401.554 536.961 400.889 538.706L400.672 539.282C400.55 539.61 400.437 539.92 400.334 540.21L399.905 541.463L399.867 541.584C399.436 542.98 398.062 543.863 396.614 543.675C373.948 540.73 356.037 544.419 342.454 553.403C323.034 566.233 331.891 596.389 354.898 596.991L355.6 597H843.628L843.581 596.773C843.273 595.332 842.89 593.783 842.423 592.145L842.218 591.438C840.214 584.643 837.24 577.848 833.117 571.522C820.621 552.35 800.49 541.43 770.547 542.897C768.892 542.978 767.485 541.702 767.404 540.047C767.323 538.392 768.598 536.985 770.253 536.904C802.386 535.33 824.513 547.333 838.144 568.246C842.609 575.097 845.814 582.418 847.973 589.74C848.73 592.306 849.303 594.693 849.718 596.844L849.876 597.694C850.034 598.574 850.131 599.236 850.18 599.653C850.381 601.376 849.086 602.896 847.378 602.995L847.2 603H355.6C326.127 603 314.563 564.638 339.145 548.398C353.3 539.035 371.583 534.977 394.127 537.342L394.958 537.432L395.05 537.187C395.729 535.363 396.549 533.355 397.514 531.207L397.842 530.485C401.006 523.573 404.998 516.662 409.891 510.198C419.017 498.142 430.208 489.049 443.659 484.182C459.188 478.563 476.916 478.915 496.868 486.18L497.879 486.553L498.066 486.144C498.813 484.516 499.684 482.749 500.682 480.873L501.062 480.165C504.733 473.379 509.274 466.597 514.74 460.256C519.127 455.167 523.938 450.576 529.191 446.607Z" fill="#EB5757"/>
<path fill-rule="evenodd" clip-rule="evenodd" d="M777.11 178.569C795.793 172.998 816.953 174.669 840.609 184.809L841.398 185.15L841.559 185.226L847.659 188.326C847.768 188.381 847.874 188.443 847.976 188.512C854.683 193.028 860.736 198.528 866.163 204.794C871.684 211.168 876.273 217.988 879.986 224.809C881.157 226.962 882.166 228.979 883.016 230.821L883.212 231.252L883.456 231.16C903.456 223.688 921.24 223.162 936.831 228.636L937.408 228.842C950.857 233.709 962.053 242.811 971.189 254.882C976.084 261.349 980.08 268.263 983.25 275.179C984.25 277.36 985.103 279.403 985.815 281.269L986.141 282.138L986.438 282.105C1005.02 280.118 1020.7 282.44 1033.68 288.509L1034.3 288.805C1045.81 294.329 1054.76 302.624 1061.47 312.92C1065.93 319.777 1069.13 327.106 1071.28 334.434C1072.04 337.003 1072.61 339.392 1073.02 341.544L1073.18 342.395C1073.34 343.276 1073.43 343.938 1073.48 344.356C1073.68 346.078 1072.38 347.596 1070.68 347.695L1070.5 347.7H776.9C775.243 347.7 773.9 346.357 773.9 344.7C773.9 343.103 775.149 341.797 776.724 341.705L776.9 341.7L1066.93 341.699L1066.88 341.466C1066.58 340.024 1066.2 338.473 1065.73 336.834L1065.53 336.126C1063.53 329.325 1060.56 322.524 1056.44 316.193C1050.31 306.777 1042.17 299.236 1031.71 294.214C1019.07 288.147 1003.45 285.956 984.48 288.376C983.094 288.553 981.779 287.751 981.293 286.458L981.047 285.719C980.878 285.221 980.672 284.64 980.426 283.982C979.719 282.086 978.844 279.966 977.796 277.679C974.797 271.138 971.016 264.595 966.405 258.503C957.92 247.293 947.619 238.918 935.366 234.484C920.309 229.035 902.862 229.754 882.723 237.882C881.223 238.488 879.525 237.793 878.867 236.338L878.572 235.614L878.354 235.096C878.198 234.733 878.022 234.334 877.826 233.901C876.98 232.029 875.944 229.935 874.715 227.677C871.198 221.214 866.846 214.747 861.628 208.722C856.754 203.095 851.36 198.143 845.436 194.042L844.769 193.587L838.925 190.617L838.229 190.316C816.089 180.829 796.566 179.2 779.422 184.143L778.825 184.319C764.682 188.536 752.645 197.087 742.594 208.726C737.392 214.749 733.06 221.213 729.562 227.674C728.34 229.931 727.311 232.023 726.47 233.895L726.193 234.518C726.106 234.718 726.023 234.908 725.946 235.09L725.524 236.116C725.516 236.135 725.51 236.152 725.504 236.167C724.907 237.736 723.139 238.51 721.582 237.884C701.419 229.783 683.96 229.075 668.9 234.524C656.646 238.958 646.35 247.324 637.875 258.52C633.266 264.608 629.49 271.146 626.497 277.683C625.555 279.74 624.754 281.661 624.089 283.406L623.872 283.982C623.75 284.31 623.637 284.62 623.534 284.91L623.105 286.163L623.067 286.284C622.636 287.68 621.263 288.563 619.814 288.375C597.149 285.431 579.237 289.119 565.655 298.102C564.273 299.016 562.412 298.637 561.498 297.255C560.584 295.873 560.963 294.012 562.345 293.098C576.501 283.735 594.783 279.677 617.327 282.042L618.158 282.132L618.25 281.887C618.929 280.063 619.749 278.056 620.714 275.907L621.042 275.185C624.207 268.273 628.198 261.362 633.091 254.898C642.217 242.842 653.408 233.749 666.859 228.882C682.388 223.263 700.116 223.615 720.068 230.88L721.079 231.253L721.273 230.828C722.024 229.191 722.899 227.415 723.903 225.53L724.285 224.817C727.978 217.996 732.548 211.178 738.053 204.804C748.803 192.355 761.772 183.143 777.11 178.569Z" fill="#EB5757"/>
<path fill-rule="evenodd" clip-rule="evenodd" d="M671.1 299.8C676.5 299.8 681.9 300.1 687.1 300.7V122.9C687.1 113.1 679.1 105.1 669.3 105.1H202.8C193 105.1 185 113.1 185 122.9V400.3C185 410.1 193 418.1 202.8 418.1H532.7C543.2 351.1 601.1 299.8 671.1 299.8Z" fill="#F2C94C"/>
<path fill-rule="evenodd" clip-rule="evenodd" d="M672.562 111.829C673.872 110.814 675.756 111.053 676.771 112.362C677.747 113.621 677.564 115.412 676.384 116.45L676.238 116.571L447.148 294.164C440.667 299.231 431.921 299.311 425.377 294.412L425.062 294.171L195.962 116.571C194.653 115.556 194.414 113.672 195.429 112.362C196.405 111.103 198.185 110.834 199.485 111.718L199.638 111.829L428.748 289.437C433.074 292.819 438.803 292.887 443.195 289.632L443.462 289.429L672.562 111.829Z" fill="#EB5757"/>
<path fill-rule="evenodd" clip-rule="evenodd" d="M332.209 217.849C333.397 216.694 335.296 216.721 336.451 217.909C337.56 219.049 337.579 220.845 336.528 222.009L336.391 222.151L192.491 362.051C191.303 363.206 189.404 363.179 188.249 361.991C187.14 360.851 187.121 359.055 188.172 357.891L188.309 357.749L332.209 217.849Z" fill="#EB5757"/>
<path fill-rule="evenodd" clip-rule="evenodd" d="M536.951 217.907C538.061 216.767 539.856 216.699 541.047 217.718L541.193 217.851L629.393 303.751C630.58 304.907 630.605 306.806 629.449 307.993C628.34 309.133 626.545 309.201 625.353 308.182L625.207 308.049L537.007 222.149C535.82 220.993 535.795 219.094 536.951 217.907Z" fill="#EB5757"/>
<path fill-rule="evenodd" clip-rule="evenodd" d="M671.1 296.8C592.068 296.8 528 360.868 528 439.9C528 518.932 592.068 583 671.1 583C750.132 583 814.2 518.932 814.2 439.9C814.2 360.868 750.132 296.8 671.1 296.8ZM671.1 302.8C746.818 302.8 808.2 364.182 808.2 439.9C808.2 515.618 746.818 577 671.1 577C595.382 577 534 515.618 534 439.9C534 364.182 595.382 302.8 671.1 302.8Z" fill="#EB5757"/>
<path fill-rule="evenodd" clip-rule="evenodd" d="M781.4 306.3C775.6 302.7 767.9 304.5 764.3 310.3L733.7 359.5C715.5 344.8 692.4 336 667.3 336C608.9 336 561.4 383.5 561.4 441.9C561.4 500.3 608.9 547.8 667.3 547.8C725.7 547.8 773.2 500.3 773.2 441.9C773.2 417.8 765.1 395.6 751.5 377.7L785.3 323.3C789 317.5 787.2 309.9 781.4 306.3ZM765.4 441.9C765.4 496 721.4 540 667.3 540C613.2 540 569.2 496 569.2 441.9C569.2 387.8 613.2 343.8 667.3 343.8C690.9 343.8 712.6 352.2 729.5 366.1L674.1 455.2L642 412.5C637.9 407 630.1 405.9 624.6 410C619.1 414.1 618 421.9 622.1 427.4L665.1 484.6C667.5 487.7 671.1 489.6 675 489.6C675.2 489.6 675.4 489.6 675.5 489.6C679.6 489.4 683.3 487.2 685.5 483.8L747 385C758.6 401 765.4 420.7 765.4 441.9Z" fill="#EB5757"/>
</svg>
