<svg width="1440" height="665" viewBox="0 0 1440 665" fill="none" xmlns="http://www.w3.org/2000/svg">
<path fill-rule="evenodd" clip-rule="evenodd" d="M907.826 0H690.878C664.98 0 644.016 21.8036 644.016 48.7374V214.188H661.091V49.0334C661.091 34.8265 672.474 23.2835 686.609 23.2835H735.178V34.0373C735.178 37.4903 738.024 40.3514 741.439 40.3514H831.178C834.688 40.3514 837.439 37.4903 837.439 34.0373V23.2835H886.008C900.142 23.2835 911.526 34.8265 911.526 49.0334V227.803H928.316V45.2844C928.316 24.4674 911.526 7.59672 890.846 7.59672C889.233 7.59672 888 6.31416 888 4.63696C888 2.95976 889.233 1.6772 890.846 1.6772C914.656 1.6772 934.008 21.2116 934.008 45.2844V227.803H954.783V48.7374C954.783 21.8036 933.723 0 907.826 0Z" fill="#EB5757"/>
<rect x="644.016" y="353.691" width="17.0751" height="197.416" fill="#EB5757"/>
<path fill-rule="evenodd" clip-rule="evenodd" d="M911.526 285.222V419.201L928.316 422.358V285.222H911.526Z" fill="#EB5757"/>
<path fill-rule="evenodd" clip-rule="evenodd" d="M928.316 598.858V598.76V448.305L911.526 445.543V606.751C911.526 620.958 900.142 632.501 886.008 632.501H686.609C673.138 632.501 662.039 621.945 661.186 608.527H644.111C645.439 634.178 666.593 656.278 691.541 656.278L894.261 654.601C894.261 653.219 895.115 652.035 896.443 651.739C910.198 648.286 919.779 638.519 924.806 622.635C928.696 610.303 928.316 598.957 928.316 598.858Z" fill="#EB5757"/>
<path fill-rule="evenodd" clip-rule="evenodd" d="M934.008 285.222V425.022L944.348 435.874L934.008 442.978V598.661C934.008 599.746 934.293 611.388 930.308 624.214C925.755 638.815 917.312 649.174 905.834 654.601H907.826C933.723 654.601 954.688 632.797 954.688 605.863V285.222H934.008Z" fill="#EB5757"/>
<path fill-rule="evenodd" clip-rule="evenodd" d="M894.356 655.193C894.64 656.574 895.873 657.462 897.107 657.462C897.296 657.462 897.581 657.462 897.771 657.363C900.617 656.672 903.273 655.686 905.834 654.502H894.261C894.261 654.798 894.261 654.995 894.356 655.193Z" fill="#EB5757"/>
<path fill-rule="evenodd" clip-rule="evenodd" d="M850.677 191.015C851.509 189.628 853.265 189.205 854.598 190.071C871.012 200.728 889.712 206.228 913.749 206.592C915.32 206.615 916.576 207.96 916.553 209.594C916.53 211.229 915.238 212.534 913.666 212.511C888.612 212.132 868.897 206.333 851.584 195.093C850.251 194.227 849.844 192.401 850.677 191.015Z" fill="#EB5757"/>
<path fill-rule="evenodd" clip-rule="evenodd" d="M672.635 83.4434C685.174 81.4913 695.583 80.6147 706.705 81.0438C721.382 81.6101 735.274 84.5548 748.434 90.4569C760.297 95.777 771.31 103.409 781.378 113.616C786.625 118.98 791.791 124.596 797.233 130.8C798.292 132.008 798.209 133.88 797.048 134.981C795.887 136.083 794.087 135.997 793.028 134.789C787.652 128.66 782.556 123.121 777.397 117.846C767.838 108.155 757.408 100.928 746.18 95.8926C733.707 90.2989 720.503 87.4997 706.494 86.9593C696.128 86.5593 686.349 87.3417 674.654 89.1169L673.467 89.301C672.606 89.4472 662.517 91.093 659.53 91.4868L659.131 91.5369C657.57 91.7191 656.161 90.55 655.986 88.9255C655.811 87.3011 656.935 85.8365 658.497 85.6542L659.188 85.5642C662.669 85.0826 673.359 83.3307 672.635 83.4434Z" fill="#EB5757"/>
<path fill-rule="evenodd" clip-rule="evenodd" d="M658.488 464.406C669.229 463.117 681.514 462.867 694.684 464.304C696.247 464.475 697.382 465.931 697.218 467.557C697.054 469.182 695.653 470.362 694.09 470.191C681.365 468.802 669.49 469.045 659.14 470.287C657.579 470.474 656.167 469.309 655.987 467.686C655.807 466.062 656.927 464.593 658.488 464.406Z" fill="#EB5757"/>
<path fill-rule="evenodd" clip-rule="evenodd" d="M765.967 496.082C766.949 494.805 768.74 494.598 769.967 495.619C774.001 498.975 777.741 502.394 781.37 506.072L783.629 508.354C807.65 532.539 821.197 543.349 837.509 550.475C855.179 558.195 876.074 561.15 913.745 561.664C915.317 561.686 916.574 563.028 916.553 564.663C916.533 566.297 915.242 567.605 913.67 567.583C875.71 567.065 854.24 564.077 835.861 556.174L835.305 555.933C817.652 548.221 803.319 536.59 777.397 510.311C773.905 506.772 770.304 503.48 766.412 500.242C765.185 499.221 764.986 497.358 765.967 496.082Z" fill="#EB5757"/>
<path fill-rule="evenodd" clip-rule="evenodd" d="M851.194 129.342H726.64C724.807 129.342 723.32 130.888 723.32 132.795V262.334C723.32 264.241 724.807 265.787 726.64 265.787H851.194C853.027 265.787 854.514 264.241 854.514 262.334V132.795C854.514 130.888 853.027 129.342 851.194 129.342ZM847.873 136.247V258.88H729.96V136.247H847.873Z" fill="#F2994A"/>
<path fill-rule="evenodd" clip-rule="evenodd" d="M760.885 269.93H728.822C726.988 269.93 725.502 271.476 725.502 273.383V306.73C725.502 308.637 726.988 310.183 728.822 310.183H760.885C762.719 310.183 764.206 308.637 764.206 306.73V273.383C764.206 271.476 762.719 269.93 760.885 269.93ZM757.564 276.835V303.276H732.141V276.835H757.564Z" fill="#F2994A"/>
<path fill-rule="evenodd" clip-rule="evenodd" d="M758.538 270.942C759.834 269.593 761.936 269.593 763.233 270.942C764.483 272.242 764.528 274.321 763.367 275.677L763.233 275.825L731.17 309.172C729.873 310.52 727.771 310.52 726.474 309.172C725.224 307.871 725.179 305.792 726.34 304.436L726.474 304.288L758.538 270.942Z" fill="#F2994A"/>
<path fill-rule="evenodd" clip-rule="evenodd" d="M804.617 269.93H772.553C770.72 269.93 769.233 271.476 769.233 273.383V306.73C769.233 308.637 770.72 310.183 772.553 310.183H804.617C806.45 310.183 807.937 308.637 807.937 306.73V273.383C807.937 271.476 806.45 269.93 804.617 269.93ZM801.295 276.836V303.277H775.872V276.836H801.295Z" fill="#F2994A"/>
<path fill-rule="evenodd" clip-rule="evenodd" d="M802.269 270.942C803.565 269.593 805.668 269.593 806.964 270.942C808.215 272.242 808.259 274.321 807.098 275.677L806.964 275.825L774.901 309.172C773.604 310.52 771.502 310.52 770.206 309.172C768.955 307.871 768.911 305.792 770.072 304.436L770.206 304.288L802.269 270.942Z" fill="#F2994A"/>
<path fill-rule="evenodd" clip-rule="evenodd" d="M848.443 269.93H816.379C814.546 269.93 813.059 271.476 813.059 273.383V306.73C813.059 308.637 814.546 310.183 816.379 310.183H848.443C850.276 310.183 851.763 308.637 851.763 306.73V273.383C851.763 271.476 850.276 269.93 848.443 269.93ZM845.121 276.836V303.277H819.698V276.836H845.121Z" fill="#F2994A"/>
<path fill-rule="evenodd" clip-rule="evenodd" d="M846.095 270.942C847.391 269.593 849.494 269.593 850.79 270.942C852.041 272.242 852.085 274.321 850.924 275.677L850.79 275.825L818.727 309.172C817.43 310.52 815.328 310.52 814.032 309.172C812.781 307.871 812.737 305.792 813.898 304.436L814.032 304.288L846.095 270.942Z" fill="#F2994A"/>
<path fill-rule="evenodd" clip-rule="evenodd" d="M861.249 342.346H721.423C705.834 342.346 693.249 355.435 693.249 371.647V388.321C693.249 404.533 705.834 417.622 721.423 417.622H861.249C876.807 417.622 889.423 404.467 889.423 388.321V371.647C889.423 355.435 876.838 342.346 861.249 342.346ZM721.423 349.252H861.249C873.17 349.252 882.783 359.249 882.783 371.647V388.321C882.783 400.657 873.136 410.716 861.249 410.716H721.423C709.502 410.716 699.889 400.719 699.889 388.321V371.647C699.889 359.249 709.502 349.252 721.423 349.252Z" fill="#F2994A"/>
<path fill-rule="evenodd" clip-rule="evenodd" d="M860.3 424.43H720.474C704.886 424.43 692.3 437.519 692.3 453.731V470.405C692.3 486.617 704.886 499.706 720.474 499.706H860.3C875.858 499.706 888.474 486.551 888.474 470.405V453.731C888.474 437.519 875.889 424.43 860.3 424.43ZM720.474 431.336H860.3C872.222 431.336 881.834 441.333 881.834 453.731V470.405C881.834 482.741 872.187 492.8 860.3 492.8H720.474C708.553 492.8 698.941 482.803 698.941 470.405V453.731C698.941 441.333 708.553 431.336 720.474 431.336Z" fill="#F2994A"/>
<path fill-rule="evenodd" clip-rule="evenodd" d="M846.652 131.352C847.942 129.997 850.045 129.986 851.348 131.327C852.604 132.621 852.659 134.7 851.505 136.062L851.371 136.211L729 264.763C727.71 266.118 725.607 266.129 724.304 264.787C723.048 263.494 722.993 261.414 724.148 260.052L724.281 259.904L846.652 131.352Z" fill="#F2994A"/>
<path fill-rule="evenodd" clip-rule="evenodd" d="M682.72 211.228H490.435C477.385 211.228 466.814 222.222 466.814 235.794V332.085C466.814 345.658 477.385 356.651 490.435 356.651H682.72C695.753 356.651 706.34 345.675 706.34 332.184V235.794C706.34 222.222 695.77 211.228 682.72 211.228ZM490.435 217.148H682.72C692.626 217.148 700.649 225.491 700.649 235.794V332.184C700.649 342.401 692.614 350.732 682.72 350.732H490.435C480.528 350.732 472.506 342.388 472.506 332.085V235.794C472.506 225.491 480.528 217.148 490.435 217.148Z" fill="#EB5757"/>
<path fill-rule="evenodd" clip-rule="evenodd" d="M560.538 277.724H559.874C557.882 277.724 556.364 276.047 556.364 274.074V270.424C556.364 268.352 557.977 266.773 559.874 266.773H560.538C562.53 266.773 564.048 268.45 564.048 270.424V274.074C564.048 276.047 562.435 277.724 560.538 277.724Z" fill="#F2994A"/>
<path fill-rule="evenodd" clip-rule="evenodd" d="M548.585 277.724H505.044C502.388 277.724 500.301 275.554 500.301 272.791V271.706C500.301 268.944 502.388 266.773 505.044 266.773H548.585C551.241 266.773 553.328 268.944 553.328 271.706V272.791C553.328 275.554 551.241 277.724 548.585 277.724Z" fill="#EB5757"/>
<path fill-rule="evenodd" clip-rule="evenodd" d="M553.423 328.731H505.044C502.388 328.731 500.301 326.56 500.301 323.798V322.713C500.301 319.95 502.388 317.78 505.044 317.78H553.423C556.079 317.78 558.166 319.95 558.166 322.713V323.798C558.166 326.56 555.985 328.731 553.423 328.731Z" fill="#EB5757"/>
<path fill-rule="evenodd" clip-rule="evenodd" d="M599.906 311.762H519.747C517.091 311.762 515.004 309.591 515.004 306.829V305.743C515.004 302.981 517.091 300.81 519.747 300.81H599.906C602.562 300.81 604.649 302.981 604.649 305.743V306.829C604.649 309.591 602.467 311.762 599.906 311.762Z" fill="#F2994A"/>
<path fill-rule="evenodd" clip-rule="evenodd" d="M653.313 311.762H614.324C611.668 311.762 609.581 309.591 609.581 306.829V305.743C609.581 302.981 611.668 300.81 614.324 300.81H653.313C655.969 300.81 658.056 302.981 658.056 305.743V306.829C658.056 309.591 655.969 311.762 653.313 311.762Z" fill="#F2994A"/>
<path fill-rule="evenodd" clip-rule="evenodd" d="M670.957 294.792H670.293C668.301 294.792 666.783 293.115 666.783 291.142V287.492C666.783 285.42 668.396 283.841 670.293 283.841H670.957C672.949 283.841 674.467 285.518 674.467 287.492V291.142C674.467 293.115 672.949 294.792 670.957 294.792Z" fill="#EB5757"/>
<path fill-rule="evenodd" clip-rule="evenodd" d="M588.332 294.792H505.044C502.388 294.792 500.301 292.622 500.301 289.859V288.774C500.301 286.012 502.388 283.841 505.044 283.841H588.332C590.989 283.841 593.075 286.012 593.075 288.774V289.859C593.075 292.523 590.894 294.792 588.332 294.792Z" fill="#EB5757"/>
<path fill-rule="evenodd" clip-rule="evenodd" d="M615.747 277.724H572.206C569.55 277.724 567.463 275.554 567.463 272.791V271.706C567.463 268.944 569.55 266.773 572.206 266.773H615.747C618.404 266.773 620.491 268.944 620.491 271.706V272.791C620.491 275.554 618.309 277.724 615.747 277.724Z" fill="#EB5757"/>
<path fill-rule="evenodd" clip-rule="evenodd" d="M657.866 294.792H601.898C599.241 294.792 597.155 292.622 597.155 289.859V288.675C597.155 285.913 599.241 283.742 601.898 283.742H657.866C660.522 283.742 662.609 285.913 662.609 288.675V289.859C662.609 292.523 660.522 294.792 657.866 294.792Z" fill="#F2994A"/>
<path fill-rule="evenodd" clip-rule="evenodd" d="M510.261 242.898L523.921 234.314C524.111 234.216 524.396 234.117 524.585 234.117C524.965 234.117 525.249 234.216 525.534 234.512C525.818 234.808 525.913 235.104 525.913 235.498C525.913 235.992 525.724 236.386 525.249 236.781L513.486 244.082L525.249 251.382C525.724 251.678 525.913 252.073 525.913 252.665C525.913 253.06 525.818 253.356 525.534 253.652C525.249 253.948 524.965 254.046 524.585 254.046C524.301 254.046 524.111 253.948 523.921 253.849L510.261 245.266C509.787 244.97 509.502 244.476 509.502 243.983C509.502 243.687 509.787 243.194 510.261 242.898Z" fill="#EB5757"/>
<path fill-rule="evenodd" clip-rule="evenodd" d="M540.143 228.888C540.427 228.592 540.712 228.494 541.091 228.494C541.471 228.494 541.755 228.592 542.04 228.888C542.324 229.184 542.419 229.48 542.419 229.875C542.419 230.072 542.419 230.269 542.324 230.467L531.321 259.078C531.226 259.176 531.131 259.374 531.036 259.472C530.751 259.768 530.467 259.867 530.087 259.867C529.708 259.867 529.423 259.768 529.139 259.472C528.854 259.176 528.759 258.88 528.759 258.486C528.759 258.289 528.759 258.091 528.854 257.894L539.858 229.283C539.953 229.086 540.048 228.987 540.143 228.888Z" fill="#EB5757"/>
<path fill-rule="evenodd" clip-rule="evenodd" d="M561.771 244.18C561.771 244.674 561.486 245.167 561.012 245.463L547.352 254.046C547.162 254.145 546.878 254.244 546.688 254.244C546.308 254.244 546.024 254.145 545.739 253.849C545.455 253.553 545.36 253.257 545.36 252.862C545.36 252.369 545.55 251.974 546.024 251.58L557.787 244.279L546.024 236.978C545.55 236.682 545.36 236.288 545.36 235.696C545.36 235.301 545.455 235.005 545.739 234.709C546.024 234.413 546.308 234.314 546.688 234.314C546.973 234.314 547.162 234.413 547.352 234.512L561.012 243.095C561.486 243.194 561.771 243.687 561.771 244.18Z" fill="#EB5757"/>
<path fill-rule="evenodd" clip-rule="evenodd" d="M1175.62 543.314C1176.1 529.304 1168.7 516.38 1156.74 509.967L1127.15 493.096L1124.87 503.653C1122.4 515.196 1111.4 522.595 1100.21 520.03C1089.11 517.465 1081.99 506.021 1084.46 494.379L1087.4 480.468C1083.7 477.804 1080.76 474.154 1079.34 469.418C1079.05 468.53 1078.86 467.642 1078.67 466.754C1069.85 463.992 1060.36 464.189 1051.54 467.445L1007.53 483.724L951.178 421.47L912.854 463.301L984.38 548.838C989.028 554.363 996.427 556.336 1003.07 553.771L1015.21 548.049L993.771 655.883L1013.41 656.278C1008.19 655.291 1010.75 650.95 1014.17 649.668C1016.35 648.878 1019.48 647.398 1022.13 646.313C1018.62 647.497 1014.07 649.273 1011.42 651.049C1008 652.43 1004.21 650.062 1003.83 648.878C1003.54 648.089 1004.87 646.609 1007.24 644.833L1006.39 645.228C999.842 646.905 996.712 646.511 998.419 642.762C999.652 640.196 1016.25 631.218 1019.48 630.232C1022.7 629.245 1051.07 625.003 1051.07 625.003L1058.37 656.376L1158.55 657.067C1168.89 657.067 1177.14 649.865 1177.04 639.111L1175.62 543.314ZM1125.06 610.599L1056.38 626.483C1056.19 626.483 1056 626.581 1055.72 626.581C1054.39 626.581 1053.25 625.595 1052.96 624.214C1052.59 622.635 1053.63 621.057 1055.15 620.662L1121.36 605.37L1118.89 569.754C1118.8 568.077 1119.94 566.696 1121.55 566.597C1123.16 566.498 1124.49 567.682 1124.59 569.359L1127.24 607.54C1127.34 608.922 1126.39 610.204 1125.06 610.599Z" fill="#EB5757"/>
<path fill-rule="evenodd" clip-rule="evenodd" d="M886.674 429.49L884.831 428.774C884.377 428.6 883.926 428.43 883.593 428.31L883.078 428.129L882.879 428.061L883.354 428.415L883.673 428.647C885.856 430.228 888.645 432.036 891.837 433.974L893.053 434.707C895.362 436.127 898.136 437.324 901.274 438.304C904.954 439.454 908.927 440.247 912.905 440.743C914.101 440.892 915.222 441.005 916.247 441.086L916.751 441.123C917.153 441.152 917.508 441.173 917.811 441.188L918.155 441.203C919.726 441.251 920.962 442.615 920.916 444.249C920.869 445.883 919.558 447.168 917.987 447.12L917.433 447.096C917.144 447.081 916.786 447.059 916.364 447.029C915.113 446.94 913.723 446.807 912.228 446.621C907.948 446.087 903.663 445.231 899.636 443.973C896.324 442.938 893.325 441.671 890.734 440.15L888.799 438.986C879.468 433.337 874.632 429.709 874.103 426.55C873.571 423.571 875.405 421.525 878.08 421.246C879.475 421.101 881.122 421.375 883.115 421.952C883.816 422.156 884.546 422.394 885.31 422.665L885.969 422.905C886.411 423.07 886.914 423.262 887.36 423.434L888.568 423.908C890.05 424.452 890.827 426.143 890.304 427.684C889.781 429.225 888.156 430.034 886.674 429.49Z" fill="#EB5757"/>
<path fill-rule="evenodd" clip-rule="evenodd" d="M877.417 419.804C876.627 415.056 880.26 412.295 884.832 412.992C888.656 413.575 892.841 416.327 896.112 420.618C897.088 421.899 896.881 423.761 895.649 424.776C894.418 425.792 892.628 425.576 891.651 424.295C889.236 421.126 886.306 419.2 884.006 418.849C883.833 418.823 883.677 418.807 883.538 418.8L883.367 418.795L883.456 418.894C883.813 419.289 884.272 419.764 884.82 420.307L885.061 420.543C886.683 422.131 888.927 424.164 891.415 426.305L892.484 427.219C897.347 431.349 902.057 434.973 904.276 436.247C908.724 438.817 914.977 440.913 922.883 442.225C923.575 442.34 924.2 442.716 924.64 443.277L924.755 443.434L929.403 450.242C930.314 451.575 930.012 453.422 928.731 454.369C927.499 455.279 925.809 455.024 924.872 453.819L924.763 453.669L920.8 447.865L920.499 447.812C912.901 446.427 906.681 444.314 901.97 441.682L901.519 441.425C898.867 439.904 893.784 435.983 888.553 431.523L887.071 430.249C880.867 424.881 877.71 421.731 877.417 419.804Z" fill="#EB5757"/>
<path fill-rule="evenodd" clip-rule="evenodd" d="M894.622 410.82C895.461 409.435 897.013 408.768 898.787 408.885C900.272 408.982 902.074 409.603 904.34 410.774L904.775 411.004L906.652 412.047C907.822 412.692 909.007 413.338 910.159 413.955L911.629 414.736C913.619 415.785 915.254 416.606 916.381 417.114L916.807 417.302L917.392 417.39C918.134 417.504 918.957 417.645 919.843 417.813C922.38 418.295 924.92 418.903 927.309 419.651C931.687 421.021 935.087 422.697 937.212 424.857L944.397 432.429L944.842 432.893C945.954 434.049 945.954 435.923 944.842 437.079C943.731 438.235 941.929 438.235 940.818 437.079L933.235 429.094C931.889 427.746 929.214 426.429 925.669 425.319C923.504 424.641 921.164 424.082 918.821 423.637C917.999 423.481 917.237 423.35 916.555 423.245L915.731 423.125C915.497 423.095 915.267 423.035 915.048 422.946L914.633 422.773C913.323 422.211 911.43 421.267 909.057 420.017L908.428 419.684C907.344 419.109 906.224 418.504 905.104 417.891L903.095 416.784L902.073 416.213L901.771 416.055L902.028 416.284C903.316 417.422 905.006 418.77 906.713 420.025L907.107 420.313C907.684 420.732 908.237 421.12 908.742 421.463L908.944 421.599L909.265 421.789L909.919 422.165C910.13 422.285 910.333 422.399 910.528 422.507L911.376 422.966C914.297 424.486 912.857 429.092 909.635 428.533C909.018 428.426 907.904 427.849 906.556 427.002L906.422 426.917L905.615 426.441C904.458 425.747 903.308 425.017 902.197 424.259L901.371 423.686C898.906 421.943 896.892 420.226 895.457 418.524C895.186 418.202 894.935 417.881 894.706 417.56L894.669 417.506C894.32 417.187 893.866 416.91 893.346 416.689L893.198 416.629L893.328 416.811C893.905 417.616 894.608 418.554 895.471 419.675L896.565 421.084C897.597 422.405 899.254 423.899 901.346 425.447C902.797 426.521 904.365 427.553 905.933 428.502L906.573 428.883C906.779 429.005 906.977 429.12 907.168 429.23L907.994 429.693C909.39 430.443 909.938 432.228 909.216 433.681C908.495 435.133 906.778 435.702 905.382 434.952L904.726 434.588C904.226 434.305 903.67 433.98 903.073 433.619C901.364 432.586 899.654 431.46 898.047 430.271C895.573 428.44 893.561 426.626 892.147 424.816L891.057 423.412C889.442 421.315 888.336 419.797 887.511 418.52C886.873 417.533 886.414 416.702 886.12 415.957C885.548 414.507 885.436 413.172 886.418 411.859C887.814 409.992 891.305 409.8 894.464 410.842L894.585 410.884L894.622 410.82Z" fill="#EB5757"/>
<path fill-rule="evenodd" clip-rule="evenodd" d="M1053.79 624.138L1053.83 624.306L1061.14 655.68C1061.56 657.486 1060.3 659.227 1058.54 659.331L1058.37 659.336L1017.39 659.335L1017.17 659.35C1011.76 659.657 1008.15 658.119 1007.71 654.536L1007.69 654.362L1007.6 654.346C1004.7 653.851 1002.07 652.182 1001.28 650.093L1001.22 649.913C1001.14 649.672 1001.09 649.43 1001.06 649.187L1001.06 649.129L1000.82 649.134C1000.09 649.143 999.431 649.084 998.842 648.954L998.624 648.902C995.232 648.028 994.315 644.858 995.874 641.438C996.832 639.445 1000.58 636.883 1006.83 633.31L1007.88 632.717C1012.42 630.169 1016.93 627.927 1018.68 627.392L1018.97 627.31C1020.64 626.867 1025.16 626.07 1032.16 624.943L1034.69 624.537L1040.09 623.689L1046.77 622.662L1050.66 622.073C1052.06 621.864 1053.38 622.75 1053.79 624.138ZM1054.75 653.416L1048.91 628.318L1046.5 628.686C1043.7 629.113 1040.9 629.546 1038.21 629.969L1033.11 630.779C1026.21 631.892 1021.49 632.726 1020.35 633.052L1020.28 633.071C1018.96 633.475 1014.31 635.81 1009.89 638.32L1009.57 638.499C1007.13 639.893 1004.96 641.226 1003.34 642.333L1002.8 642.706C1002.72 642.766 1002.64 642.825 1002.56 642.884L1002.3 643.072L1002.35 643.065C1003.09 642.952 1003.98 642.776 1004.99 642.531L1005.74 642.347L1005.95 642.194C1007.22 641.297 1008.69 640.421 1010.31 639.582L1010.64 639.414C1011.59 638.927 1012.62 638.43 1013.72 637.926C1015.74 637.006 1017.88 636.103 1020.02 635.253L1020.9 634.91C1021.18 634.8 1021.45 634.695 1021.71 634.595L1022.9 634.149C1024.38 633.606 1026 634.416 1026.53 635.958C1027.03 637.444 1026.32 639.069 1024.94 639.67L1024.05 640.01C1023.45 640.238 1022.78 640.498 1022.05 640.784C1019.99 641.602 1017.93 642.469 1016.02 643.345C1014.98 643.817 1014.02 644.28 1013.14 644.728C1011.02 645.814 1009.19 647.01 1007.91 648.102L1007.69 648.295L1007.83 648.348C1008.62 648.62 1009.4 648.682 1010.08 648.516L1010.27 648.463L1010.29 648.45C1011.9 647.426 1014.03 646.395 1016.59 645.349L1017.11 645.14C1018.11 644.741 1019.14 644.352 1020.18 643.975L1020.51 643.859L1022.29 643.119C1025.47 641.827 1026.41 641.654 1027.58 641.94L1027.66 641.962C1030.49 642.697 1030.55 646.855 1027.75 647.681L1027.02 647.901L1025.9 648.258C1025.63 648.343 1025.35 648.433 1025.07 648.526C1024.4 648.749 1023.72 648.977 1023.06 649.21L1022.52 649.404L1016.63 651.893L1015.2 652.462C1014.77 652.617 1014.35 652.869 1014 653.164L1013.84 653.312L1013.88 653.321C1014.56 653.458 1015.54 653.512 1016.79 653.443L1017.11 653.423L1017.3 653.417L1054.75 653.416Z" fill="#EB5757"/>
<path fill-rule="evenodd" clip-rule="evenodd" d="M1131.13 466.994C1131.52 465.412 1133.08 464.464 1134.6 464.877C1136.07 465.275 1136.97 466.793 1136.67 468.319L1136.64 468.488L1127.63 504.356L1127.56 504.689C1124.61 517.501 1112.41 525.635 1099.97 523.003L1099.59 522.919C1087.05 520.022 1079.04 507.204 1081.6 494.131L1081.68 493.734L1084.43 480.909C1084.77 479.313 1086.3 478.309 1087.83 478.664C1089.31 479.008 1090.26 480.491 1090.02 482.027L1089.99 482.198L1087.24 495.016C1085.12 505.023 1091.22 514.921 1100.82 517.14C1110.33 519.32 1119.75 513.139 1122.02 503.339L1122.12 502.905L1131.13 466.994Z" fill="#EB5757"/>
<path fill-rule="evenodd" clip-rule="evenodd" d="M1115.36 392.633C1118.15 392.94 1121.01 393.708 1123.82 394.803C1125.74 395.549 1127.32 396.315 1128.66 397.051C1141.5 404.18 1147.01 414.142 1147.19 425.959C1147.26 430.228 1146.61 434.484 1145.46 438.54C1145.04 440.018 1144.58 441.38 1144.1 442.603L1144 442.864C1143.83 443.287 1143.68 443.653 1143.54 443.958L1143.35 444.382L1143.15 444.745L1139.92 450.928C1138.43 453.774 1137.05 456.367 1135.69 458.874L1134.61 460.842L1133.8 462.324C1130.8 467.718 1128.48 471.564 1127.13 473.257L1126.66 473.828C1122.22 479.106 1119.84 480.519 1111.33 482.505L1110.88 482.61C1099.6 485.227 1085.4 479.221 1082.25 468.549C1081.42 465.735 1081 462.428 1080.96 458.731C1080.92 454.096 1081.47 449.103 1082.42 444.071L1082.65 442.911L1082.81 442.15C1082.95 441.49 1083.11 440.775 1083.28 440.064L1084.19 436.197L1084.25 436.215C1087.73 423.897 1092.73 411.213 1098.58 400.874C1102.36 394.206 1108.07 391.831 1115.36 392.633ZM1148.13 447.617L1147.05 449.538C1146.37 450.699 1147.22 448.798 1145.83 448.798C1146.91 448.798 1147.9 448.165 1148.38 447.163L1148.42 447.074L1148.61 446.674C1148.83 446.174 1149.09 445.555 1149.38 444.822C1149.92 443.426 1150.44 441.884 1150.92 440.216C1152.22 435.62 1152.96 430.781 1152.89 425.863C1152.67 411.952 1146.06 400 1131.33 391.826C1129.79 390.976 1127.99 390.104 1125.82 389.259C1122.58 388 1119.27 387.11 1115.96 386.746C1106.75 385.734 1098.94 388.912 1093.9 397.477L1093.67 397.87C1087.57 408.668 1082.39 421.793 1078.79 434.547L1078.74 434.752C1078.71 434.89 1078.69 435.029 1078.68 435.17L1078.67 435.376L1078.67 435.344C1078.66 435.205 1078.57 435.421 1078.52 435.566L1078.48 435.67L1078.32 436.282L1078.24 436.608C1077.82 438.233 1077.41 440.009 1077.03 441.926C1075.89 447.657 1075.22 453.387 1075.27 458.789C1075.31 463.018 1075.8 466.876 1076.81 470.287C1080.95 484.31 1098.22 491.614 1112.11 488.388L1113.08 488.162C1122.7 485.864 1125.99 483.717 1131.49 477.07C1133.13 475.002 1135.54 471.012 1138.68 465.365L1139.89 463.165L1140.23 462.543C1141.74 459.772 1143.26 456.922 1144.92 453.768L1148.13 447.617Z" fill="#EB5757"/>
<path fill-rule="evenodd" clip-rule="evenodd" d="M1081.42 435.381C1084.46 424.627 1089.39 411.111 1096.03 399.37C1096.32 398.877 1096.7 398.285 1096.98 397.792C1091.57 393.352 1082.75 402.528 1076.68 421.174C1073.55 430.843 1064.92 435.776 1064.92 435.776C1071.46 441.794 1077.44 439.13 1081.33 435.776C1081.42 435.578 1081.42 435.381 1081.42 435.381Z" fill="#EB5757"/>
<path fill-rule="evenodd" clip-rule="evenodd" d="M1094.15 428.066C1094.73 426.548 1096.39 425.81 1097.85 426.417C1099.25 427.003 1099.97 428.625 1099.49 430.101L1099.43 430.265L1093.51 445.672L1096.52 446.804C1097.95 447.338 1098.71 448.935 1098.29 450.427L1098.23 450.592C1097.72 452.075 1096.19 452.869 1094.75 452.426L1094.59 452.372L1088.81 450.202C1087.35 449.654 1086.59 447.997 1087.07 446.485L1087.13 446.318L1094.15 428.066Z" fill="#EB5757"/>
<path fill-rule="evenodd" clip-rule="evenodd" d="M1092.1 427.921C1092.72 426.418 1092.48 424.87 1091.57 424.461C1090.65 424.053 1089.41 424.94 1088.79 426.442C1088.17 427.945 1088.41 429.493 1089.32 429.902C1090.24 430.31 1091.48 429.423 1092.1 427.921Z" fill="#EB5757"/>
<path fill-rule="evenodd" clip-rule="evenodd" d="M1108.02 435.038C1108.36 433.441 1107.85 431.967 1106.88 431.743C1105.9 431.52 1104.84 432.633 1104.5 434.23C1104.16 435.826 1104.68 437.301 1105.65 437.524C1106.62 437.747 1107.68 436.634 1108.02 435.038Z" fill="#EB5757"/>
<path fill-rule="evenodd" clip-rule="evenodd" d="M1111.08 422.754C1111.39 421.152 1112.89 420.118 1114.43 420.444C1117.06 421.001 1119.15 422.34 1120.71 424.201C1121.45 425.081 1122.01 426.018 1122.44 426.961C1122.71 427.552 1122.88 428.044 1122.97 428.392C1123.38 429.969 1122.48 431.595 1120.97 432.022C1119.5 432.434 1118 431.582 1117.52 430.106L1117.46 429.881C1117.43 429.806 1117.38 429.667 1117.29 429.483C1117.08 429.01 1116.79 428.531 1116.42 428.089C1115.71 427.239 1114.79 426.624 1113.58 426.311L1113.3 426.245C1111.76 425.918 1110.76 424.355 1111.08 422.754Z" fill="#EB5757"/>
<path fill-rule="evenodd" clip-rule="evenodd" d="M1091.71 409.954C1093.97 409.708 1096.16 410.449 1098.27 411.777C1099.31 412.432 1100.12 413.09 1100.62 413.575C1101.77 414.684 1101.84 416.557 1100.78 417.757C1099.75 418.911 1098.05 419.023 1096.89 418.044L1096.64 417.815C1096.6 417.781 1096.55 417.742 1096.5 417.696L1096.41 417.625C1096.09 417.358 1095.72 417.089 1095.32 416.84C1094.18 416.12 1093.1 415.755 1092.3 415.842C1092.03 415.871 1091.79 415.951 1091.55 416.096L1091.41 416.191C1090.13 417.135 1088.36 416.818 1087.45 415.484C1086.54 414.149 1086.84 412.302 1088.13 411.358C1089.22 410.557 1090.43 410.094 1091.71 409.954Z" fill="#EB5757"/>
<path fill-rule="evenodd" clip-rule="evenodd" d="M1180.36 435.874L1162.91 426.6C1165.09 413.084 1163.76 392.07 1139.29 380.231C1101.06 361.782 1087.11 401.541 1087.11 401.541L1174.67 447.516C1177.8 449.193 1181.6 447.911 1183.21 444.655C1184.73 441.498 1183.49 437.551 1180.36 435.874Z" fill="#F2994A"/>
<path fill-rule="evenodd" clip-rule="evenodd" d="M1092.62 463.005C1088.73 454.718 1106.94 460.342 1106.94 460.342C1106.94 460.342 1101.82 479.383 1092.62 463.005Z" fill="#EB5757"/>
<path fill-rule="evenodd" clip-rule="evenodd" d="M1160.82 440.412L1123.92 421.075C1119.65 434.986 1114.25 462.907 1137.11 470.207C1137.11 470.207 1155.04 476.324 1160.16 470.306C1160.16 470.306 1147.92 460.934 1150.67 453.337C1150.67 453.337 1163.19 472.674 1177.99 462.413C1177.99 462.216 1160.54 456.395 1160.82 440.412Z" fill="#EB5757"/>
<path fill-rule="evenodd" clip-rule="evenodd" d="M1059.13 224.843H886.672C873.622 224.843 863.051 235.837 863.051 249.409V263.616C863.051 277.188 873.622 288.182 886.672 288.182H1059.13C1072.08 288.182 1082.64 277.198 1082.75 263.641L1082.75 249.409C1082.75 235.837 1072.18 224.843 1059.13 224.843ZM886.672 230.763H1059.13C1069.04 230.763 1077.06 239.106 1077.06 249.409V263.616C1076.98 273.91 1068.95 282.263 1059.13 282.263H886.672C876.765 282.263 868.743 273.919 868.743 263.616V249.409C868.743 239.106 876.765 230.763 886.672 230.763Z" fill="#EB5757"/>
<path fill-rule="evenodd" clip-rule="evenodd" d="M1053.82 247.633C1055.39 247.633 1056.66 248.959 1056.66 250.593C1056.66 252.169 1055.48 253.458 1053.99 253.548L1053.82 253.553H893.407C891.835 253.553 890.561 252.228 890.561 250.593C890.561 249.017 891.746 247.728 893.24 247.638L893.407 247.633H1053.82Z" fill="#EB5757"/>
<path fill-rule="evenodd" clip-rule="evenodd" d="M969.486 261.84C971.058 261.84 972.332 263.165 972.332 264.8C972.332 266.376 971.147 267.665 969.653 267.755L969.486 267.76H893.407C891.835 267.76 890.561 266.435 890.561 264.8C890.561 263.224 891.746 261.935 893.24 261.845L893.407 261.84H969.486Z" fill="#EB5757"/>
<path fill-rule="evenodd" clip-rule="evenodd" d="M782.798 548.148H610.34C597.29 548.148 586.719 559.142 586.719 572.714V586.921C586.719 600.493 597.29 611.487 610.34 611.487H782.798C795.848 611.487 806.419 600.493 806.419 586.921V572.714C806.419 559.142 795.848 548.148 782.798 548.148ZM610.34 554.067H782.798C792.705 554.067 800.727 562.411 800.727 572.714V586.921C800.727 597.224 792.705 605.567 782.798 605.567H610.34C600.433 605.567 592.411 597.224 592.411 586.921V572.714C592.411 562.411 600.433 554.067 610.34 554.067Z" fill="#EB5757"/>
<path fill-rule="evenodd" clip-rule="evenodd" d="M777.486 570.938C779.058 570.938 780.332 572.263 780.332 573.898C780.332 575.474 779.147 576.763 777.653 576.853L777.486 576.858H617.17C615.598 576.858 614.324 575.532 614.324 573.898C614.324 572.322 615.509 571.033 617.003 570.943L617.17 570.938H777.486Z" fill="#EB5757"/>
<path fill-rule="evenodd" clip-rule="evenodd" d="M693.249 585.145C694.821 585.145 696.095 586.47 696.095 588.105C696.095 589.681 694.91 590.969 693.416 591.059L693.249 591.064H617.17C615.598 591.064 614.324 589.739 614.324 588.105C614.324 586.528 615.509 585.24 617.003 585.15L617.17 585.145H693.249Z" fill="#EB5757"/>
<path fill-rule="evenodd" clip-rule="evenodd" d="M535.684 102.901H363.225C350.175 102.901 339.605 113.895 339.605 127.467V141.674C339.605 155.246 350.175 166.24 363.225 166.24H535.684C548.635 166.24 559.197 155.256 559.304 141.698L559.304 127.467C559.304 113.895 548.734 102.901 535.684 102.901ZM363.225 108.821H535.684C545.59 108.821 553.613 117.164 553.613 127.467V141.674C553.531 151.968 545.499 160.32 535.684 160.32H363.225C353.319 160.32 345.296 151.977 345.296 141.674V127.467C345.296 117.164 353.319 108.821 363.225 108.821Z" fill="#EB5757"/>
<path fill-rule="evenodd" clip-rule="evenodd" d="M530.372 125.691C531.943 125.691 533.218 127.016 533.218 128.651C533.218 130.227 532.033 131.516 530.539 131.606L530.372 131.611H369.961C368.389 131.611 367.115 130.286 367.115 128.651C367.115 127.075 368.299 125.786 369.793 125.696L369.961 125.691H530.372Z" fill="#EB5757"/>
<path fill-rule="evenodd" clip-rule="evenodd" d="M446.04 139.898C447.611 139.898 448.885 141.223 448.885 142.858C448.885 144.434 447.701 145.723 446.207 145.813L446.04 145.818H369.961C368.389 145.818 367.115 144.492 367.115 142.858C367.115 141.282 368.299 139.993 369.793 139.903L369.961 139.898H446.04Z" fill="#EB5757"/>
<path fill-rule="evenodd" clip-rule="evenodd" d="M414.671 384.812C415.277 383.303 416.944 382.592 418.394 383.222C429.913 388.229 436.377 396.866 438.944 408.096L439.058 408.611L439.199 408.686C443.161 410.852 447.288 413.931 451.934 418.054L454.233 420.128C456.137 421.871 457.782 423.462 461.066 426.743L469.109 434.816C471.921 437.627 474.051 439.705 476.172 441.689L476.555 442.046L476.614 442.086C476.795 442.212 476.954 442.351 477.144 442.538L477.422 442.82L478.115 443.481C502.666 467.206 511.804 503.618 501.614 536.906L501.296 537.924L494.087 560.715C493.842 561.489 493.302 562.12 492.599 562.466L492.274 562.605L484.478 565.749C481.806 566.821 478.957 567.961 475.954 569.156L472.902 570.37C458.13 576.237 443.086 582.103 428.66 587.58L424.84 589.026L421.08 590.442C383.361 604.606 358.537 612.769 350.893 612.769C340.133 612.769 309.716 590.853 287.9 566.532C259.478 534.847 248.179 504.041 262.747 480.54C272.937 464.121 284.332 450.197 296.435 438.594C304.772 430.601 312.915 424.206 320.424 419.32L320.758 419.104L320.726 418.954C317.702 404.034 328.842 391.882 355.515 383.76L356.371 383.502C357.882 383.052 359.458 383.962 359.89 385.533C360.323 387.105 359.448 388.743 357.937 389.193C331.889 396.946 323.104 407.303 326.766 419.608C327.154 420.912 326.635 422.322 325.509 423.023C317.738 427.86 309.141 434.463 300.293 442.946C288.536 454.217 277.453 467.76 267.53 483.749C254.831 504.235 265.226 532.578 292.061 562.494C302.75 574.409 315.431 585.725 327.442 594.38L328.36 595.036C338.707 602.39 347.416 606.85 350.893 606.85C357.444 606.85 382.086 598.767 418.054 585.285L422.898 583.462C424.158 582.986 425.428 582.505 426.708 582.019C440.077 576.944 453.982 571.532 467.707 566.095L472.914 564.028C475.945 562.822 478.826 561.671 481.533 560.586L489.099 557.538L495.892 536.069C505.886 504.698 497.409 470.206 474.241 447.818L473.534 447.143L473.338 446.945L473.28 446.907C473.228 446.87 473.177 446.831 473.127 446.791L472.982 446.665L472.367 446.091C470.009 443.885 467.656 441.582 464.429 438.348L459.571 433.474C446.698 420.616 441.964 416.581 435.328 413.289C434.512 412.884 433.929 412.099 433.758 411.174C431.854 400.831 426.503 393.162 416.199 388.684C414.749 388.053 414.065 386.32 414.671 384.812Z" fill="#EB5757"/>
<path fill-rule="evenodd" clip-rule="evenodd" d="M433.802 409.434C435.13 416.636 434.656 423.443 434.466 427.587C433.708 444.852 427.542 454.225 425.644 460.638C437.787 453.139 448.98 435.776 454.482 424.43C450.877 421.075 439.874 412.492 433.802 409.434Z" fill="#EB5757"/>
<path fill-rule="evenodd" clip-rule="evenodd" d="M367.494 461.92C361.518 459.059 330.972 438.538 325.85 418.609C319.684 422.062 310.103 428.08 304.126 435.48C311.051 439.821 350.039 463.893 367.209 462.611C367.494 462.611 367.684 462.611 367.873 462.512C367.684 462.315 367.589 462.117 367.494 461.92Z" fill="#EB5757"/>
<path fill-rule="evenodd" clip-rule="evenodd" d="M414.356 462.117C420.901 442.188 415.968 420.089 411.32 413.577C406.387 433.506 395.289 445.74 395.289 445.74C376.601 423.641 357.154 411.111 357.154 411.111L357.723 410.42C356.87 410.42 356.395 410.519 356.395 410.519L349.375 418.017C349.375 418.017 382.577 444.26 393.391 507.599C400.411 548.74 404.016 587.315 404.016 587.315L424.601 586.131C424.696 586.131 407.241 483.724 414.356 462.117Z" fill="#F2994A"/>
<path fill-rule="evenodd" clip-rule="evenodd" d="M347.031 363.891C348.478 363.253 350.148 363.955 350.762 365.46C351.376 366.965 350.701 368.702 349.254 369.341C345.098 371.174 343.221 374.044 345.315 378.685C347.103 382.678 350.311 382.79 354.834 380.202C356.211 379.415 357.942 379.937 358.699 381.369C359.456 382.802 358.954 384.601 357.577 385.389C354.787 386.985 351.939 387.934 349.162 387.838C345.277 387.703 342.082 385.487 340.159 381.192C338.106 376.641 338.361 372.495 340.56 369.132C342.119 366.748 344.451 365.029 347.031 363.891Z" fill="#EB5757"/>
<path fill-rule="evenodd" clip-rule="evenodd" d="M406.209 329.228C407.674 328.635 409.323 329.39 409.893 330.913C415.823 346.76 419.305 367.535 419.573 381.751C419.603 383.386 418.355 384.736 416.783 384.768C415.212 384.8 413.913 383.502 413.882 381.867C413.626 368.308 410.259 348.212 404.589 333.06C404.019 331.537 404.744 329.821 406.209 329.228Z" fill="#EB5757"/>
<path fill-rule="evenodd" clip-rule="evenodd" d="M363.984 395.227L364.151 395.232C365.664 395.325 366.832 396.63 366.83 398.186L366.825 398.36L366.541 403.392C366.508 403.969 366.314 404.521 365.985 404.983L365.855 405.151L361.423 410.494L361.863 410.807C364.371 412.602 367.161 414.719 370.162 417.151C378.383 423.813 386.603 431.52 394.323 440.207L395.217 441.222L395.619 440.683L395.886 440.318C397.954 437.463 400.028 434.137 401.965 430.381C406.078 422.409 408.998 413.635 410.207 404.208C410.415 402.588 411.846 401.45 413.404 401.666C414.962 401.882 416.056 403.37 415.849 404.991C414.544 415.169 411.401 424.612 406.981 433.18C404.9 437.214 402.669 440.792 400.432 443.88L399.99 444.484C398.841 446.037 397.93 447.142 397.358 447.772C396.207 449.039 394.258 449.003 393.152 447.695C392.467 446.885 391.775 446.082 391.077 445.283C383.312 436.415 374.987 428.564 366.664 421.82C363.978 419.644 361.471 417.731 359.2 416.089L358.637 415.684C357.916 415.168 357.265 414.713 356.691 414.321L355.937 413.812C355.811 413.728 355.717 413.666 355.656 413.627C354.22 412.702 353.88 410.7 354.886 409.323L354.999 409.178L360.916 402.043L361.143 398.013C361.232 396.439 362.488 395.225 363.984 395.227Z" fill="#EB5757"/>
<path fill-rule="evenodd" clip-rule="evenodd" d="M355.875 363.907L349.045 366.274C347.471 366.82 346.689 368.636 347.313 370.208L347.467 370.551L349.391 374.666L350.922 377.918C351.774 379.722 352.624 381.511 353.457 383.256L355.106 386.692C358.1 392.9 360.381 397.452 361.719 399.813L362.239 400.713C366.278 407.582 369.326 410.129 378.48 413.956C384.028 416.275 391.629 416.818 398.489 415.301C406.463 413.537 412.804 409.223 415.961 402.552C418.734 396.69 419.748 389.151 419.513 380.664C419.431 377.706 419.198 374.824 418.866 372.117L418.744 371.169C418.683 370.71 418.62 370.272 418.558 369.857L418.495 369.45C418.424 369.001 418.363 368.64 418.316 368.375L418.288 368.222C418.037 366.878 416.933 365.889 415.618 365.829C413.493 365.733 410.301 366.116 406.324 366.827C405.289 367.011 404.25 367.21 403.232 367.416L401.677 367.738L400.182 368.066L400.064 368.095C395.289 369.406 390.687 370.973 386.281 372.743C381.452 374.683 377.105 376.764 373.305 378.849L372.812 379.122L371.87 379.652L371.054 380.123L370.953 379.959C367.321 374.088 360.831 365.835 358.266 364.194C357.549 363.735 356.674 363.63 355.875 363.907ZM353.921 370.824L356.206 370.031L356.363 370.19C359.266 373.156 365.454 381.454 367.539 385.56C368.319 387.095 370.196 387.605 371.599 386.664L372.059 386.366C372.228 386.259 372.435 386.131 372.678 385.982C373.607 385.412 374.705 384.774 375.961 384.084C379.571 382.104 383.718 380.119 388.332 378.265L389.486 377.808C392.963 376.452 396.564 375.228 400.276 374.166L401.458 373.835L402.578 373.589C402.813 373.538 403.068 373.484 403.341 373.427C404.629 373.159 405.964 372.897 407.287 372.661L407.698 372.588C409.566 372.261 411.238 372.017 412.618 371.876L413.086 371.83L413.179 372.536C413.192 372.644 413.206 372.754 413.22 372.866C413.53 375.392 413.747 378.083 413.823 380.835C414.034 388.444 413.138 395.11 410.854 399.938C406.382 409.389 390.972 412.798 380.603 408.463L379.779 408.115C372.418 404.978 370.344 403.173 367.074 397.59L366.713 396.966C365.489 394.834 363.201 390.276 360.193 384.038L358.553 380.621C357.724 378.885 356.878 377.103 356.03 375.307L353.921 370.824Z" fill="#EB5757"/>
<path fill-rule="evenodd" clip-rule="evenodd" d="M352.506 372.338C352.506 372.338 344.632 364.643 340.269 355.763C336.095 347.377 337.897 337.018 344.822 331C350.704 325.968 356.206 327.35 356.206 327.35C356.206 327.35 346.245 316.694 354.119 302.981C356.964 298.147 361.518 294.694 366.83 293.51C379.826 290.55 386.466 300.909 386.466 300.909C386.466 300.909 394.055 271.015 426.024 279.303C429.249 280.191 433.518 283.742 435.794 286.308C449.36 301.797 423.652 331 408 336.821C390.83 343.234 379.826 342.839 373.091 339.781C377.929 341.162 379.731 369.773 352.506 372.338Z" fill="#EB5757"/>
<path fill-rule="evenodd" clip-rule="evenodd" d="M399.422 360.19C400.843 359.642 402.417 360.35 403.017 361.776L403.08 361.937L409.056 378.709C409.725 380.587 408.447 382.58 406.556 382.692L406.387 382.697H400.221C398.65 382.697 397.375 381.372 397.375 379.737C397.375 378.161 398.56 376.873 400.054 376.783L400.221 376.778L402.297 376.777L397.743 363.994C397.216 362.516 397.896 360.88 399.267 360.255L399.422 360.19Z" fill="#EB5757"/>
<path fill-rule="evenodd" clip-rule="evenodd" d="M408.533 363.965C409.449 363.73 409.896 362.296 409.531 360.762C409.167 359.228 408.13 358.175 407.214 358.41C406.299 358.645 405.852 360.079 406.216 361.613C406.58 363.147 407.618 364.2 408.533 363.965Z" fill="#EB5757"/>
<path fill-rule="evenodd" clip-rule="evenodd" d="M393.141 367.777C394.083 367.724 394.779 366.402 394.697 364.824C394.615 363.246 393.785 362.01 392.843 362.063C391.902 362.116 391.205 363.438 391.287 365.016C391.37 366.594 392.199 367.83 393.141 367.777Z" fill="#EB5757"/>
<path fill-rule="evenodd" clip-rule="evenodd" d="M388.067 350.832C389.637 350.771 390.959 352.045 391.018 353.679C391.075 355.254 389.938 356.588 388.448 356.736L388.281 356.748C386.853 356.804 385.749 357.334 384.857 358.209C384.341 358.715 384.011 359.209 383.875 359.479L383.84 359.553C383.19 361.041 381.502 361.699 380.072 361.023C378.641 360.346 378.008 358.592 378.658 357.104L378.781 356.843C378.899 356.605 379.059 356.318 379.263 355.994C379.716 355.277 380.274 354.567 380.952 353.903C382.799 352.091 385.184 350.946 388.067 350.832Z" fill="#EB5757"/>
<path fill-rule="evenodd" clip-rule="evenodd" d="M407.583 340.919C409.525 340.958 411.309 341.645 412.733 343.083C413.861 344.221 413.888 346.095 412.793 347.268C411.742 348.394 410.04 348.465 408.907 347.462L408.769 347.331C408.443 347.002 408.046 346.849 407.475 346.838C406.726 346.823 405.796 347.069 404.835 347.503C404.243 347.771 403.792 348.033 403.583 348.176C402.269 349.072 400.505 348.689 399.643 347.322C398.782 345.955 399.149 344.12 400.464 343.224L400.771 343.024C401.22 342.743 401.83 342.407 402.566 342.074C404.212 341.33 405.894 340.886 407.583 340.919Z" fill="#EB5757"/>
<path fill-rule="evenodd" clip-rule="evenodd" d="M402.043 384.7L402.041 384.676L392.65 385.268C390.439 385.407 389.222 388.005 390.48 389.902C390.652 390.163 390.921 390.498 391.295 390.877C391.852 391.441 392.534 391.988 393.348 392.486C395.111 393.565 397.285 394.288 399.878 394.525C399.985 394.535 400.094 394.538 400.201 394.535C403.272 394.451 405.164 392.468 405.36 389.751C405.416 388.967 405.331 388.202 405.155 387.473C405.093 387.215 405.021 386.97 404.947 386.757L404.886 386.593L404.78 386.341C404.756 386.291 404.721 386.228 404.628 386.059L404.587 385.968C404.512 385.82 404.384 385.712 403.571 385.026L403.273 384.879C403.011 384.759 402.843 384.728 402.375 384.711L402.043 384.7Z" fill="#EB5757"/>
<path fill-rule="evenodd" clip-rule="evenodd" d="M370.062 454.469C371.452 453.842 373.06 454.46 373.734 455.849L373.826 456.059L374.193 456.96L374.625 458.048C374.913 458.778 375.221 459.575 375.545 460.43C376.84 463.847 378.134 467.512 379.344 471.285C380.663 475.397 381.8 479.393 382.702 483.187C383.729 487.505 384.428 491.462 384.747 494.99C384.893 496.618 383.744 498.061 382.179 498.214C380.614 498.366 379.226 497.171 379.08 495.543C378.791 492.339 378.141 488.661 377.177 484.608C376.314 480.979 375.218 477.13 373.945 473.157C372.9 469.9 371.788 466.719 370.669 463.717L370.249 462.601C369.998 461.936 369.756 461.31 369.528 460.724L368.942 459.243L368.583 458.362C367.958 456.862 368.62 455.119 370.062 454.469Z" fill="#EB5757"/>
<path fill-rule="evenodd" clip-rule="evenodd" d="M420.657 455.222C422.166 455.087 423.503 456.204 423.717 457.744L423.748 458.057L424.407 465.766L424.782 470.028C425.145 474.123 425.515 478.186 425.884 482.105L426.2 485.427C426.362 487.117 426.522 488.75 426.678 490.32L426.956 493.079C427.122 494.705 425.99 496.163 424.427 496.335C422.92 496.502 421.563 495.413 421.319 493.878L421.297 493.705L421.017 490.932C420.891 489.669 420.763 488.366 420.634 487.027L420.061 480.99C419.796 478.154 419.532 475.254 419.27 472.33L418.612 464.842L418.066 458.426C417.931 456.797 419.091 455.363 420.657 455.222Z" fill="#EB5757"/>
<path fill-rule="evenodd" clip-rule="evenodd" d="M345.969 488.416C347.144 487.331 348.943 487.443 349.986 488.665C350.989 489.841 350.929 491.616 349.878 492.715L349.747 492.844L335.423 506.064C334.481 506.933 333.101 507.055 332.032 506.364C324.156 501.275 317.671 501.442 312.395 504.656C311.597 505.142 310.905 505.659 310.327 506.17L310.016 506.454C309.93 506.535 309.863 506.602 309.813 506.653L309.739 506.733C308.68 507.94 306.88 508.026 305.718 506.925C304.557 505.823 304.475 503.951 305.534 502.743C305.757 502.489 306.127 502.114 306.643 501.658C307.464 500.933 308.423 500.215 309.518 499.548C316.033 495.58 324.015 495.095 332.903 500.052L333.186 500.212L345.969 488.416Z" fill="#EB5757"/>
<path fill-rule="evenodd" clip-rule="evenodd" d="M329.733 501.595C330.512 500.175 332.25 499.68 333.615 500.49L361.862 517.202C367.218 520.359 370.511 522.286 370.949 522.513C372.354 523.244 372.924 525.022 372.221 526.484C371.544 527.892 369.934 528.494 368.56 527.883L368.403 527.808C367.945 527.569 365.576 526.19 361.549 523.821L346.713 515.06L330.796 505.632C329.43 504.822 328.955 503.014 329.733 501.595Z" fill="#EB5757"/>
<path fill-rule="evenodd" clip-rule="evenodd" d="M450.019 483.085C451.407 482.452 453.017 483.063 453.697 484.449L453.768 484.607L460.883 501.477C461.514 502.974 460.859 504.72 459.42 505.377C458.032 506.01 456.421 505.399 455.742 504.012L455.67 503.855L448.556 486.984C447.925 485.487 448.58 483.742 450.019 483.085Z" fill="#EB5757"/>
<path fill-rule="evenodd" clip-rule="evenodd" d="M367.874 590.768C367.874 590.768 332.3 575.378 288.285 543.61C244.269 511.841 216.285 560.973 228.048 581.1C238.482 598.858 297.107 659.731 297.107 659.731L496.601 658.054C496.601 658.054 543.463 596.688 550.862 587.118C575.715 554.659 555.225 537.394 527.81 534.928C502.103 532.56 432.569 585.244 424.032 592.051L367.874 590.768Z" fill="#EB5757"/>
<path fill-rule="evenodd" clip-rule="evenodd" d="M489.961 500.89H361.708C360 500.89 358.577 502.074 358.198 503.751L340.838 580.212H308.585C308.585 580.212 305.644 595.899 322.719 595.899C327.083 595.899 333.534 595.899 340.743 595.899C341.028 595.997 341.407 596.096 341.787 596.096H470.04C471.747 596.096 473.17 594.912 473.55 593.235L493.47 505.527C494.04 503.159 492.332 500.89 489.961 500.89Z" fill="#F2994A"/>
<path fill-rule="evenodd" clip-rule="evenodd" d="M1439.61 651.542C1441.18 651.535 1442.46 652.854 1442.47 654.488C1442.47 656.065 1441.29 657.359 1439.8 657.456L1439.63 657.462L0.392672 664.368C-1.17903 664.375 -2.45903 663.056 -2.46628 661.422C-2.47327 659.845 -1.29425 658.551 0.199221 658.454L0.366412 658.448L1439.61 651.542Z" fill="#EB5757"/>
</svg>
