<svg width="1440" height="745" viewBox="0 0 1440 745" fill="none" xmlns="http://www.w3.org/2000/svg">
<rect x="65.6113" y="174.364" width="131.196" height="131.196" transform="rotate(10.9998 65.6113 174.364)" fill="#F2C94C"/>
<path fill-rule="evenodd" clip-rule="evenodd" d="M75.7668 215.97C76.1021 214.408 77.5974 213.393 79.1562 213.635L79.3296 213.667L170.63 233.267C172.25 233.615 173.281 235.21 172.933 236.83C172.598 238.392 171.103 239.407 169.544 239.165L169.37 239.133L78.0703 219.533C76.4503 219.185 75.419 217.59 75.7668 215.97Z" fill="#333333"/>
<path fill-rule="evenodd" clip-rule="evenodd" d="M72.4667 233.071C72.8018 231.509 74.2969 230.494 75.8558 230.735L76.0292 230.767L164.129 249.667C165.749 250.014 166.781 251.609 166.433 253.229C166.098 254.791 164.603 255.806 163.044 255.565L162.871 255.533L74.7707 236.633C73.1507 236.286 72.1192 234.691 72.4667 233.071Z" fill="#333333"/>
<path fill-rule="evenodd" clip-rule="evenodd" d="M66.7669 250.57C67.1024 249.008 68.5978 247.993 70.1566 248.235L70.33 248.267L137.83 262.767C139.45 263.115 140.481 264.71 140.133 266.33C139.797 267.892 138.302 268.907 136.743 268.665L136.57 268.633L69.0699 254.133C67.45 253.785 66.4189 252.19 66.7669 250.57Z" fill="#333333"/>
<rect x="-19.398" y="288.769" width="131.2" height="131.2" transform="rotate(-23.6094 -19.398 288.769)" fill="#F2C94C"/>
<path fill-rule="evenodd" clip-rule="evenodd" d="M82.2597 294.225C83.7922 293.595 85.545 294.327 86.1748 295.86C86.7821 297.337 86.1233 299.02 84.7013 299.703L84.5402 299.775L27.8402 323.075C26.3077 323.705 24.5549 322.973 23.9251 321.44C23.3178 319.962 23.9766 318.28 25.3986 317.597L25.5597 317.525L82.2597 294.225Z" fill="#333333"/>
<path fill-rule="evenodd" clip-rule="evenodd" d="M63.6624 327.124C65.1956 326.496 66.9477 327.229 67.5759 328.762C68.1817 330.241 67.5213 331.923 66.0986 332.604L65.9375 332.676L39.3375 343.576C37.8043 344.204 36.0522 343.471 35.424 341.937C34.8182 340.459 35.4786 338.777 36.9012 338.096L37.0624 338.024L63.6624 327.124Z" fill="#333333"/>
<path fill-rule="evenodd" clip-rule="evenodd" d="M50.4 251.7L49 258.9L99.3 240.2L138.4 322.2L145.5 323.5L102.4 232.3L50.4 251.7Z" fill="#EB5757"/>
<path fill-rule="evenodd" clip-rule="evenodd" d="M1397 432.5H879.7C844.6 432.5 816.1 404 816.1 368.9V0H1460.6V368.9C1460.6 404.1 1432.1 432.5 1397 432.5Z" fill="#333333"/>
<path fill-rule="evenodd" clip-rule="evenodd" d="M1170.2 277.8C1170.2 277.8 1146.2 284 1140.9 261.7C1140.9 261.7 1159.5 253.6 1170.2 277.8Z" fill="#EB5757"/>
<path fill-rule="evenodd" clip-rule="evenodd" d="M1114.9 220.4C1117.6 222.1 1120.6 223.3 1123.6 224.3C1120.7 228.2 1119.3 233.4 1120.3 238.8C1121.3 244.8 1124.9 249.6 1129.4 251.9C1128.2 259.2 1126.1 269.7 1123.7 273.4C1122.5 275.2 1123.2 277.9 1125.2 279.5C1127.2 281 1129.8 280.8 1131 279C1134.5 273.6 1136.9 260.4 1138 253.3C1138.2 253.3 1138.3 253.3 1138.5 253.2C1146.9 251.6 1152.4 242.5 1150.8 232.8C1150.3 229.7 1149 226.9 1147.3 224.6C1156.6 222.2 1165.2 216.9 1171.2 208.9C1184.1 191.6 1179.9 168.7 1161.8 157.7C1143.7 146.7 1118.5 151.8 1105.6 169C1092.6 186.4 1096.8 209.3 1114.9 220.4Z" fill="#EB5757"/>
<path fill-rule="evenodd" clip-rule="evenodd" d="M1024.2 388.7L932.4 370.9L904.8 314.8L920.4 234.9L1049.2 259.9L1024.2 388.7Z" fill="#F2C94C"/>
<path fill-rule="evenodd" clip-rule="evenodd" d="M937.446 270.374C937.726 268.801 939.185 267.735 940.751 267.921L940.926 267.946L1016.23 281.346C1017.86 281.637 1018.94 283.194 1018.65 284.826C1018.37 286.399 1016.92 287.466 1015.35 287.28L1015.17 287.254L939.874 273.854C938.243 273.563 937.156 272.006 937.446 270.374Z" fill="#EB5757"/>
<path fill-rule="evenodd" clip-rule="evenodd" d="M935.146 283.574C935.426 282.001 936.885 280.934 938.451 281.121L938.626 281.146L1013.93 294.546C1015.56 294.837 1016.64 296.394 1016.35 298.026C1016.07 299.599 1014.62 300.666 1013.05 300.479L1012.87 300.454L937.574 287.054C935.943 286.763 934.856 285.206 935.146 283.574Z" fill="#EB5757"/>
<path fill-rule="evenodd" clip-rule="evenodd" d="M933.047 297.472C933.328 295.899 934.788 294.833 936.354 295.021L936.529 295.047L981.229 303.047C982.859 303.339 983.945 304.898 983.653 306.529C983.372 308.101 981.912 309.167 980.346 308.979L980.171 308.953L935.471 300.953C933.841 300.661 932.755 299.102 933.047 297.472Z" fill="#EB5757"/>
<path fill-rule="evenodd" clip-rule="evenodd" d="M905.26 313.304C905.577 311.738 907.061 310.706 908.622 310.93L908.796 310.96L945.796 318.46C947.382 318.781 948.416 320.297 948.162 321.873L948.129 322.049L937.629 369.449C937.271 371.066 935.669 372.087 934.051 371.729C932.491 371.383 931.486 369.882 931.738 368.324L931.771 368.151L941.61 323.733L907.604 316.84C906.038 316.523 905.006 315.039 905.23 313.478L905.26 313.304Z" fill="#EB5757"/>
<path fill-rule="evenodd" clip-rule="evenodd" d="M816.1 67C817.757 67 819.1 68.3431 819.1 70C819.1 71.5977 817.851 72.9037 816.276 72.9949L816.1 73H795.878L795.663 74.7238C795.499 76.004 795.312 77.3858 795.103 78.8643L794.897 80.298C793.747 88.2025 792.218 97.0054 790.261 106.483C784.667 133.568 776.758 160.656 766.124 185.966C750.506 223.14 730.339 253.228 704.982 273.667C674.467 298.265 637.603 307.864 594.057 299.85L588.537 298.838C530.112 288.155 486.104 281.254 439.002 276.218L437.529 276.061C371.625 269.079 312.639 267.681 260.825 273.109C199.809 279.5 150.628 295.244 114.985 321.669C74.9495 351.351 52.473 394.189 49.4959 451.856C46.4419 510.526 55.0922 550.212 73.5153 573.162C88.7493 592.14 110.385 599.302 137.061 596.732C155.362 594.968 175.056 588.72 194.96 579.398C203.328 575.48 211.162 571.279 218.238 567.081L219.56 566.291C221.07 565.383 222.467 564.52 223.744 563.712L224.81 563.033C225.361 562.679 225.853 562.358 226.283 562.074L227.105 561.525C228.472 560.589 230.339 560.938 231.275 562.305C232.211 563.672 231.862 565.539 230.495 566.475L229.854 566.906C229.427 567.189 228.938 567.509 228.389 567.864L228.052 568.081C226.096 569.338 223.835 570.736 221.3 572.241C214.065 576.534 206.06 580.825 197.505 584.832C177.031 594.421 156.717 600.866 137.636 602.704C109.095 605.454 85.4635 597.632 68.8363 576.918C49.3335 552.622 40.3806 511.549 43.504 451.545C46.5724 392.11 69.9207 347.61 111.412 316.849C148.038 289.695 198.206 273.636 260.2 267.141C312.487 261.664 371.872 263.072 438.161 270.095L441.116 270.411C489.314 275.611 534.428 282.776 595.143 293.95C636.956 301.644 672.052 292.505 701.217 268.996C725.696 249.264 745.328 219.974 760.592 183.642C771.061 158.726 778.864 132 784.385 105.27C786.226 96.3578 787.682 88.0542 788.795 80.5532L788.96 79.434C789.29 77.1652 789.568 75.1101 789.797 73.2852L790.049 71.202L790.215 69.7023C790.362 68.2273 791.561 67.0904 793.023 67.0051L793.2 67H816.1Z" fill="#333333"/>
<path fill-rule="evenodd" clip-rule="evenodd" d="M811.6 79H795C792.5 79 790.5 77 790.5 74.5V65.8C790.5 63.3 792.5 61.3 795 61.3H811.6C814.1 61.3 816.1 63.3 816.1 65.8V74.5C816.1 77 814 79 811.6 79Z" fill="#F2C94C"/>
<path fill-rule="evenodd" clip-rule="evenodd" d="M244.7 561C253.2 554 256.1 510.2 220.4 529.5C184.7 548.8 211.1 576.6 228.6 569.4C246 562.2 244.7 561 244.7 561Z" fill="#F2C94C"/>
<path fill-rule="evenodd" clip-rule="evenodd" d="M349.841 265.391C350.647 267.175 349.907 269.264 348.19 270.154L347.87 270.304L346.671 270.858L344.98 271.651C342.485 272.831 339.588 274.235 336.322 275.859L334.228 276.905C325.782 281.143 316.504 286.031 306.583 291.545L305.339 292.237C273.276 310.128 241.215 330.749 211.307 353.805C151.483 399.925 107.987 449.792 87.735 502.327C62.7956 567.022 74.4496 632.658 129.812 698.848C131.111 700.401 130.905 702.713 129.352 704.012C127.799 705.311 125.487 705.105 124.188 703.552C67.1355 635.342 54.9835 566.902 80.8933 499.69C101.713 445.682 146.038 394.864 206.83 347.998C237.049 324.702 269.408 303.89 301.766 285.834L304.27 284.443C314.23 278.93 323.537 274.047 332.003 269.818L333.057 269.293C335.658 268 338.031 266.843 340.159 265.825L342.929 264.513L344.991 263.559C346.837 262.725 349.008 263.546 349.841 265.391Z" fill="#333333"/>
<path fill-rule="evenodd" clip-rule="evenodd" d="M131 708.7C140.2 714.7 182.8 704.4 153.8 676.1C124.8 647.7 106 681.2 118.1 695.8C130.3 710.3 131 708.7 131 708.7Z" fill="#F2C94C"/>
<path fill-rule="evenodd" clip-rule="evenodd" d="M385.3 282.5H345C337.7 282.5 331.7 276.6 331.7 269.2V269.2C331.7 261.9 337.6 255.9 345 255.9H385.3C392.6 255.9 398.6 261.8 398.6 269.2V269.2C398.6 276.6 392.6 282.5 385.3 282.5Z" fill="#F2C94C"/>
<path fill-rule="evenodd" clip-rule="evenodd" d="M1284.5 688.3L1244 675.6C1223.3 669.1 1211.8 647.2 1218.3 626.5L1258.4 498.4C1264.9 477.7 1286.8 466.2 1307.5 472.7L1348 485.4C1368.7 491.9 1380.2 513.8 1373.7 534.5L1333.6 662.6C1327.2 683.3 1305.2 694.8 1284.5 688.3Z" fill="#333333"/>
<path fill-rule="evenodd" clip-rule="evenodd" d="M1255.54 497.501L1215.44 625.604C1208.45 647.869 1220.81 671.462 1243.1 678.462L1283.6 691.163C1305.89 698.162 1329.58 685.769 1336.47 663.486L1376.56 535.396C1383.55 513.131 1371.19 489.538 1348.9 482.538L1308.4 469.838C1286.13 462.846 1262.54 475.207 1255.54 497.501ZM1306.6 475.562L1347.1 488.263C1366.24 494.271 1376.84 514.499 1370.84 533.601L1330.74 661.704C1324.83 680.818 1304.52 691.442 1285.4 685.438L1244.9 672.737C1225.76 666.729 1215.16 646.501 1221.16 627.399L1261.26 499.296C1267.27 480.162 1287.5 469.564 1306.6 475.562Z" fill="#333333"/>
<path fill-rule="evenodd" clip-rule="evenodd" d="M1271.8 612.9C1271.8 612.9 1280.8 612.7 1280.8 621C1280.8 621 1273.5 622.4 1271.8 612.9Z" fill="#EB5757"/>
<path fill-rule="evenodd" clip-rule="evenodd" d="M1286.6 637.8C1285.8 637 1284.8 636.3 1283.9 635.7C1285.2 634.6 1286.2 632.8 1286.3 630.8C1286.4 628.6 1285.6 626.6 1284.2 625.4C1285.2 622.9 1286.8 619.4 1288 618.3C1288.6 617.8 1288.6 616.7 1288 616C1287.4 615.3 1286.5 615.1 1285.9 615.7C1284.2 617.3 1282.3 621.8 1281.3 624.2C1281.2 624.2 1281.2 624.2 1281.1 624.2C1278 624.1 1275.3 626.8 1275.1 630.4C1275 631.6 1275.3 632.6 1275.7 633.6C1272.2 633.7 1268.7 634.9 1266 637.2C1260 642.2 1259.6 650.7 1265.1 656.1C1270.6 661.5 1279.9 661.8 1285.9 656.7C1291.7 651.6 1292.1 643.2 1286.6 637.8Z" fill="#EB5757"/>
<rect x="429.089" y="433.734" width="267.306" height="315.507" transform="rotate(-9.43312 429.089 433.734)" fill="#333333"/>
<rect x="364.352" y="454.495" width="245.897" height="290.197" transform="rotate(-21.4386 364.352 454.495)" fill="#EB5757"/>
<path fill-rule="evenodd" clip-rule="evenodd" d="M592.139 361.826L363.256 451.702C361.713 452.308 360.954 454.049 361.56 455.591L467.628 725.709C468.233 727.251 469.974 728.011 471.517 727.405L700.4 637.529C701.943 636.923 702.702 635.182 702.096 633.64L596.028 363.522C595.423 361.979 593.681 361.22 592.139 361.826ZM591.539 368.507L695.414 633.041L472.116 720.724L368.241 456.191L591.539 368.507Z" fill="#333333"/>
<path fill-rule="evenodd" clip-rule="evenodd" d="M393.841 486.674C396.176 485.758 398.81 486.907 399.726 489.241C400.615 491.507 399.558 494.055 397.361 495.041L397.158 495.126L354.858 511.726C352.524 512.642 349.89 511.493 348.974 509.158C348.085 506.893 349.142 504.344 351.339 503.359L351.541 503.274L393.841 486.674Z" fill="#333333"/>
<path fill-rule="evenodd" clip-rule="evenodd" d="M411.433 531.477C413.765 530.556 416.402 531.701 417.323 534.033C418.216 536.296 417.165 538.847 414.97 539.837L414.767 539.923L372.467 556.623C370.135 557.543 367.498 556.399 366.577 554.067C365.683 551.803 366.735 549.253 368.93 548.263L369.133 548.177L411.433 531.477Z" fill="#333333"/>
<path fill-rule="evenodd" clip-rule="evenodd" d="M429.041 576.374C431.376 575.458 434.01 576.607 434.926 578.941C435.815 581.207 434.758 583.755 432.561 584.741L432.358 584.826L390.058 601.426C387.724 602.342 385.09 601.193 384.174 598.858C383.285 596.593 384.342 594.044 386.539 593.059L386.741 592.974L429.041 576.374Z" fill="#333333"/>
<path fill-rule="evenodd" clip-rule="evenodd" d="M446.641 621.174C448.976 620.258 451.61 621.407 452.526 623.741C453.415 626.007 452.358 628.556 450.161 629.541L449.958 629.626L407.658 646.226C405.324 647.142 402.69 645.993 401.774 643.658C400.885 641.393 401.942 638.844 404.139 637.859L404.341 637.774L446.641 621.174Z" fill="#333333"/>
<path fill-rule="evenodd" clip-rule="evenodd" d="M464.336 665.976C466.669 665.057 469.305 666.203 470.224 668.536C471.116 670.8 470.062 673.35 467.866 674.339L467.664 674.424L425.264 691.124C422.931 692.043 420.295 690.897 419.376 688.564C418.484 686.299 419.538 683.749 421.733 682.761L421.936 682.676L464.336 665.976Z" fill="#333333"/>
<path fill-rule="evenodd" clip-rule="evenodd" d="M522.304 475.807C523.846 475.202 525.587 475.961 526.192 477.504C526.776 478.991 526.091 480.663 524.659 481.323L524.496 481.392L443.496 513.192C441.954 513.798 440.213 513.039 439.607 511.496C439.024 510.009 439.709 508.337 441.141 507.677L441.304 507.607L522.304 475.807Z" fill="#F2C94C"/>
<path fill-rule="evenodd" clip-rule="evenodd" d="M560.405 477.307C561.947 476.702 563.688 477.462 564.293 479.005C564.876 480.492 564.19 482.164 562.757 482.824L562.595 482.893L481.495 514.693C479.953 515.298 478.212 514.538 477.607 512.995C477.024 511.508 477.71 509.836 479.143 509.176L479.305 509.107L560.405 477.307Z" fill="#F2C94C"/>
<path fill-rule="evenodd" clip-rule="evenodd" d="M463.7 515.209C465.242 514.601 466.984 515.359 467.591 516.9C468.177 518.387 467.493 520.06 466.062 520.722L465.9 520.791L449.4 527.291C447.858 527.898 446.116 527.141 445.509 525.6C444.923 524.113 445.606 522.44 447.038 521.778L447.2 521.709L463.7 515.209Z" fill="#F2C94C"/>
<path fill-rule="evenodd" clip-rule="evenodd" d="M495.198 561.41C496.739 560.801 498.481 561.557 499.09 563.098C499.677 564.584 498.995 566.257 497.564 566.921L497.402 566.99L469.302 578.09C467.761 578.699 466.018 577.943 465.41 576.402C464.823 574.916 465.505 573.243 466.936 572.579L467.098 572.51L495.198 561.41Z" fill="#F2C94C"/>
<path fill-rule="evenodd" clip-rule="evenodd" d="M510.802 536.608C512.344 536.002 514.086 536.76 514.692 538.302C515.277 539.789 514.592 541.461 513.16 542.123L512.998 542.192L462.898 561.892C461.356 562.498 459.614 561.74 459.008 560.198C458.423 558.711 459.108 557.038 460.54 556.377L460.702 556.308L510.802 536.608Z" fill="#F2C94C"/>
<path fill-rule="evenodd" clip-rule="evenodd" d="M481.706 527.106C483.249 526.502 484.99 527.263 485.594 528.806C486.176 530.294 485.489 531.965 484.056 532.624L483.894 532.693L455.794 543.693C454.251 544.297 452.51 543.536 451.906 541.993C451.324 540.506 452.011 538.834 453.444 538.175L453.606 538.106L481.706 527.106Z" fill="#F2C94C"/>
<path fill-rule="evenodd" clip-rule="evenodd" d="M540.902 503.808C542.444 503.202 544.186 503.96 544.792 505.502C545.377 506.989 544.692 508.662 543.26 509.323L543.098 509.392L496.298 527.792C494.756 528.398 493.014 527.64 492.408 526.098C491.823 524.611 492.508 522.938 493.94 522.277L494.102 522.208L540.902 503.808Z" fill="#F2C94C"/>
<path fill-rule="evenodd" clip-rule="evenodd" d="M602.2 454L597 473.2L597.5 654.3H608L607.5 473.1L602.2 454Z" fill="#F2C94C"/>
<path fill-rule="evenodd" clip-rule="evenodd" d="M615.538 601.074C617.149 601.041 618.493 602.274 618.617 603.86L618.626 604.038L619.526 647.938C619.56 649.575 618.288 650.93 616.674 651.022L616.5 651.027H597.5C595.828 651.027 594.473 649.671 594.473 648C594.473 646.388 595.733 645.07 597.322 644.978L597.5 644.973L613.41 644.973L612.574 604.162C612.541 602.55 613.774 601.207 615.36 601.083L615.538 601.074Z" fill="#333333"/>
<path fill-rule="evenodd" clip-rule="evenodd" d="M599.5 535.6H605.3C607.8 535.6 609.8 533.6 609.8 531.2L610.1 487.3C610.1 484.8 608.1 482.8 605.7 482.8H599.9C597.4 482.8 595.4 484.8 595.4 487.2L595.1 531.1C595.1 533.6 597.1 535.6 599.5 535.6Z" fill="#333333"/>
<path fill-rule="evenodd" clip-rule="evenodd" d="M603.078 582.874C604.689 582.916 605.974 584.209 606.025 585.8L606.026 585.978L605.426 609.378C605.383 611.049 603.993 612.368 602.322 612.326C600.711 612.284 599.426 610.991 599.375 609.4L599.374 609.222L599.974 585.822C600.017 584.151 601.407 582.831 603.078 582.874Z" fill="#333333"/>
<path fill-rule="evenodd" clip-rule="evenodd" d="M550.4 412.4L547.8 432L572.4 611.5L582.8 610.1L558.2 430.6L550.4 412.4Z" fill="#F2C94C"/>
<path fill-rule="evenodd" clip-rule="evenodd" d="M523.8 166.9L452.9 176.3C443.1 177.6 434.1 170.7 432.8 160.9L432.6 159.3C431.3 149.5 438.2 140.5 448 139.2L518.9 129.8L523.8 166.9Z" fill="#EB5757"/>
<path fill-rule="evenodd" clip-rule="evenodd" d="M518.506 126.826L447.606 136.226C436.277 137.729 428.271 148.042 429.583 159.348L429.823 161.272C431.344 172.738 441.853 180.792 453.294 179.274L524.194 169.874C525.836 169.656 526.991 168.149 526.774 166.507L521.874 129.407C521.657 127.764 520.149 126.608 518.506 126.826ZM516.318 133.168L520.432 164.32L452.506 173.326C444.35 174.408 436.856 168.665 435.774 160.506L435.577 158.928C434.492 150.75 440.235 143.256 448.394 142.174L516.318 133.168Z" fill="#333333"/>
<path fill-rule="evenodd" clip-rule="evenodd" d="M598.7 226.3C650.339 226.3 692.2 184.439 692.2 132.8C692.2 81.1614 650.339 39.3 598.7 39.3C547.061 39.3 505.2 81.1614 505.2 132.8C505.2 184.439 547.061 226.3 598.7 226.3Z" fill="#EB5757"/>
<path fill-rule="evenodd" clip-rule="evenodd" d="M598.7 36.3C545.405 36.3 502.2 79.5046 502.2 132.8C502.2 186.096 545.405 229.3 598.7 229.3C651.995 229.3 695.2 186.096 695.2 132.8C695.2 79.5046 651.995 36.3 598.7 36.3ZM598.7 42.3C648.682 42.3 689.2 82.8183 689.2 132.8C689.2 182.782 648.682 223.3 598.7 223.3C548.718 223.3 508.2 182.782 508.2 132.8C508.2 82.8183 548.718 42.3 598.7 42.3Z" fill="#333333"/>
<path fill-rule="evenodd" clip-rule="evenodd" d="M598.7 198.9C635.206 198.9 664.8 169.306 664.8 132.8C664.8 96.294 635.206 66.7001 598.7 66.7001C562.194 66.7001 532.6 96.294 532.6 132.8C532.6 169.306 562.194 198.9 598.7 198.9Z" fill="#F2C94C"/>
<path fill-rule="evenodd" clip-rule="evenodd" d="M822.5 600L822.3 499.1C822.3 490.5 829.2 483.5 837.8 483.5L1094.2 483C1102.8 483 1109.8 489.9 1109.8 498.5L1110 599.4C1110 608 1103.1 615 1094.5 615L838.1 615.5C829.5 615.5 822.5 608.6 822.5 600Z" fill="#F2C94C"/>
<path fill-rule="evenodd" clip-rule="evenodd" d="M1088.3 487.7L843.4 488.2C835.496 488.2 829.1 494.791 829.1 502.9L829.3 594.007C829.3 602.029 835.715 608.6 843.6 608.6L1088.51 608.1C1096.36 608.227 1102.7 601.649 1102.7 593.5V571.3L1102.69 571.124C1102.6 569.549 1101.3 568.3 1099.7 568.3L1095.2 568.299L1095.1 527.5H1099.6C1101.26 527.5 1102.6 526.157 1102.6 524.5V502.3C1102.6 494.271 1096.19 487.7 1088.3 487.7ZM1088.31 493.7L1088.55 493.704C1092.97 493.84 1096.6 497.639 1096.6 502.3V521.5H1094.9C1091.63 521.5 1089.1 524.155 1089.1 527.4L1089.2 568.407L1089.2 568.626C1089.32 571.745 1091.88 574.3 1095 574.3L1096.7 574.299V593.5C1096.7 598.278 1093.16 602.034 1088.79 602.101L843.594 602.6C839.061 602.6 835.3 598.747 835.3 594L835.1 502.893C835.1 498.065 838.85 494.2 843.406 494.2L1088.31 493.7Z" fill="#EB5757"/>
</svg>
