<svg width="1441" height="785" viewBox="0 0 1441 785" fill="none" xmlns="http://www.w3.org/2000/svg">
<path fill-rule="evenodd" clip-rule="evenodd" d="M794 781.1H393.2C377.9 781.1 365.5 768.7 365.5 753.4V100.9C365.5 85.6 377.9 73.2 393.2 73.2H794C778.7 73.2 766.3 85.6 766.3 100.9V753.4C766.2 768.6 778.7 781.1 794 781.1Z" fill="#FEBA91"/>
<path fill-rule="evenodd" clip-rule="evenodd" d="M473.4 128.4L508.1 9.59998C509.4 5.19998 514 2.69998 518.4 3.89998L779.3 80V157.2" fill="white"/>
<path fill-rule="evenodd" clip-rule="evenodd" d="M505.223 8.74995C506.954 2.89232 513.003 -0.51599 518.948 0.94425L519.24 1.02L780.14 77.12C781.362 77.4764 782.219 78.5617 782.295 79.8192L782.3 80V157.2C782.3 158.857 780.957 160.2 779.3 160.2C777.702 160.2 776.396 158.951 776.305 157.376L776.3 157.2L776.299 82.249L517.611 6.79428C514.832 6.03655 511.958 7.55961 511.047 10.2281L510.98 10.4411L476.28 129.241C475.815 130.832 474.149 131.744 472.559 131.28C471.025 130.832 470.122 129.267 470.476 127.729L470.52 127.559L505.223 8.74995Z" fill="#EB5757"/>
<path fill-rule="evenodd" clip-rule="evenodd" d="M550.521 39.0568C550.97 37.5244 552.534 36.6221 554.07 36.9757L554.241 37.0202L771.741 100.52C773.331 100.985 774.244 102.65 773.78 104.241C773.332 105.774 771.767 106.678 770.23 106.324L770.059 106.28L555.291 43.576L555.15 43.9199C549.73 56.8053 535.85 64.1996 522.098 61.3626L521.841 61.307L501.279 131.642C500.831 133.175 499.266 134.078 497.729 133.724L497.558 133.679C496.025 133.231 495.122 131.666 495.476 130.129L495.521 129.958L516.921 56.7582C517.398 55.1257 519.135 54.2161 520.749 54.7539L520.964 54.8288L521.493 55.034L521.815 55.1266C533.973 58.4725 546.659 51.5019 550.409 39.428L550.521 39.0568Z" fill="#EB5757"/>
<path fill-rule="evenodd" clip-rule="evenodd" d="M430.2 302.6L445.3 134.3C445.7 129.7 449.7 126.4 454.3 126.8L768.9 154.5V291.8" fill="white"/>
<path fill-rule="evenodd" clip-rule="evenodd" d="M442.311 134.04C442.846 127.892 448.135 123.409 454.27 123.79L454.563 123.812L769.163 151.512C770.652 151.643 771.808 152.847 771.895 154.322L771.9 154.5V291.8C771.9 293.457 770.557 294.8 768.9 294.8C767.302 294.8 765.996 293.551 765.905 291.976L765.9 291.8V157.247L454.04 129.789C451.145 129.537 448.67 131.527 448.311 134.349L448.288 134.568L433.188 302.868C433.04 304.518 431.582 305.736 429.932 305.588C428.341 305.445 427.151 304.085 427.201 302.508L427.212 302.332L442.311 134.04Z" fill="#EB5757"/>
<path fill-rule="evenodd" clip-rule="evenodd" d="M501.612 156.63C501.756 155.04 503.115 153.852 504.691 153.901L504.867 153.912L765.667 177.212C767.317 177.359 768.536 178.817 768.388 180.467C768.246 182.058 766.886 183.248 765.309 183.199L765.133 183.188L507.162 160.141L507.149 160.217C504.174 175.182 489.703 185.885 473.068 185.418L472.825 185.408L462.288 303.068C462.146 304.659 460.785 305.848 459.208 305.799L459.032 305.788C457.441 305.646 456.252 304.285 456.301 302.708L456.312 302.532L467.112 181.932C467.25 180.385 468.547 179.2 470.1 179.2C470.368 179.2 470.544 179.215 470.834 179.254L471.137 179.298C471.136 179.3 471.124 179.3 471.1 179.3L471.231 179.303L471.362 179.311C486.864 180.671 500.366 170.426 501.612 156.63Z" fill="#EB5757"/>
<path fill-rule="evenodd" clip-rule="evenodd" d="M546 300.1C547.657 300.1 549 301.443 549 303.1C549 304.698 547.751 306.004 546.176 306.095L546 306.1H401C399.343 306.1 398 304.757 398 303.1C398 301.502 399.249 300.196 400.824 300.105L401 300.1H546Z" fill="#EB5757"/>
<path fill-rule="evenodd" clip-rule="evenodd" d="M401 310.1C404.866 310.1 408 306.966 408 303.1C408 299.234 404.866 296.1 401 296.1C397.134 296.1 394 299.234 394 303.1C394 306.966 397.134 310.1 401 310.1Z" fill="#EB5757"/>
<path fill-rule="evenodd" clip-rule="evenodd" d="M603 781.1H565C555.1 781.1 547 773 547 763.1V242.1C547 232.2 555.1 224.1 565 224.1H585C594.9 224.1 603 232.2 603 242.1V781.1Z" fill="#EB5757"/>
<path fill-rule="evenodd" clip-rule="evenodd" d="M1060 781.2H585.8C596.8 781.2 605.8 772.2 605.8 761.2V244.1C605.8 233.1 596.8 224.1 585.8 224.1H1060C1071 224.1 1080 233.1 1080 244.1V761.2C1080 772.3 1071 781.2 1060 781.2Z" fill="#333333"/>
<path fill-rule="evenodd" clip-rule="evenodd" d="M585 224.1C596.414 224.1 605.805 232.733 605.997 243.561L606 243.9V779.5C606 781.157 604.657 782.5 603 782.5C601.402 782.5 600.096 781.251 600.005 779.676L600 779.5V243.9C600 236.327 593.311 230.1 585 230.1C583.343 230.1 582 228.757 582 227.1C582 225.443 583.343 224.1 585 224.1Z" fill="#EB5757"/>
<path fill-rule="evenodd" clip-rule="evenodd" d="M546.8 256.5C548.457 256.5 549.8 257.843 549.8 259.5C549.8 261.098 548.551 262.404 546.976 262.495L546.8 262.5H518C516.343 262.5 515 261.157 515 259.5C515 257.902 516.249 256.596 517.824 256.505L518 256.5H546.8Z" fill="#EB5757"/>
<path fill-rule="evenodd" clip-rule="evenodd" d="M546.8 278.1C548.457 278.1 549.8 279.443 549.8 281.1C549.8 282.698 548.551 284.004 546.976 284.095L546.8 284.1H518C516.343 284.1 515 282.757 515 281.1C515 279.502 516.249 278.196 517.824 278.105L518 278.1H546.8Z" fill="#EB5757"/>
<path fill-rule="evenodd" clip-rule="evenodd" d="M546.8 321.4C548.457 321.4 549.8 322.743 549.8 324.4C549.8 325.998 548.551 327.304 546.976 327.395L546.8 327.4H518C516.343 327.4 515 326.057 515 324.4C515 322.802 516.249 321.496 517.824 321.405L518 321.4H546.8Z" fill="#EB5757"/>
<path fill-rule="evenodd" clip-rule="evenodd" d="M546.8 343C548.457 343 549.8 344.343 549.8 346C549.8 347.598 548.551 348.904 546.976 348.995L546.8 349H518C516.343 349 515 347.657 515 346C515 344.402 516.249 343.096 517.824 343.005L518 343H546.8Z" fill="#EB5757"/>
<path fill-rule="evenodd" clip-rule="evenodd" d="M546.8 364.6C548.457 364.6 549.8 365.943 549.8 367.6C549.8 369.198 548.551 370.504 546.976 370.595L546.8 370.6H518C516.343 370.6 515 369.257 515 367.6C515 366.002 516.249 364.696 517.824 364.605L518 364.6H546.8Z" fill="#EB5757"/>
<path fill-rule="evenodd" clip-rule="evenodd" d="M546.8 386.3C548.457 386.3 549.8 387.643 549.8 389.3C549.8 390.898 548.551 392.204 546.976 392.295L546.8 392.3H518C516.343 392.3 515 390.957 515 389.3C515 387.702 516.249 386.396 517.824 386.305L518 386.3H546.8Z" fill="#EB5757"/>
<path fill-rule="evenodd" clip-rule="evenodd" d="M546.8 407.9C548.457 407.9 549.8 409.243 549.8 410.9C549.8 412.498 548.551 413.804 546.976 413.895L546.8 413.9H518C516.343 413.9 515 412.557 515 410.9C515 409.302 516.249 407.996 517.824 407.905L518 407.9H546.8Z" fill="#EB5757"/>
<path fill-rule="evenodd" clip-rule="evenodd" d="M546.8 429.6C548.457 429.6 549.8 430.943 549.8 432.6C549.8 434.198 548.551 435.504 546.976 435.595L546.8 435.6H518C516.343 435.6 515 434.257 515 432.6C515 431.002 516.249 429.696 517.824 429.605L518 429.6H546.8Z" fill="#EB5757"/>
<path fill-rule="evenodd" clip-rule="evenodd" d="M546.8 451.2C548.457 451.2 549.8 452.543 549.8 454.2C549.8 455.798 548.551 457.104 546.976 457.195L546.8 457.2H518C516.343 457.2 515 455.857 515 454.2C515 452.602 516.249 451.296 517.824 451.205L518 451.2H546.8Z" fill="#EB5757"/>
<path fill-rule="evenodd" clip-rule="evenodd" d="M546.8 472.8C548.457 472.8 549.8 474.143 549.8 475.8C549.8 477.398 548.551 478.704 546.976 478.795L546.8 478.8H518C516.343 478.8 515 477.457 515 475.8C515 474.202 516.249 472.896 517.824 472.805L518 472.8H546.8Z" fill="#EB5757"/>
<path fill-rule="evenodd" clip-rule="evenodd" d="M546.8 494.5C548.457 494.5 549.8 495.843 549.8 497.5C549.8 499.098 548.551 500.404 546.976 500.495L546.8 500.5H518C516.343 500.5 515 499.157 515 497.5C515 495.902 516.249 494.596 517.824 494.505L518 494.5H546.8Z" fill="#EB5757"/>
<path fill-rule="evenodd" clip-rule="evenodd" d="M546.8 516.1C548.457 516.1 549.8 517.443 549.8 519.1C549.8 520.698 548.551 522.004 546.976 522.095L546.8 522.1H518C516.343 522.1 515 520.757 515 519.1C515 517.502 516.249 516.196 517.824 516.105L518 516.1H546.8Z" fill="#EB5757"/>
<path fill-rule="evenodd" clip-rule="evenodd" d="M546.8 537.7C548.457 537.7 549.8 539.043 549.8 540.7C549.8 542.298 548.551 543.604 546.976 543.695L546.8 543.7H518C516.343 543.7 515 542.357 515 540.7C515 539.102 516.249 537.796 517.824 537.705L518 537.7H546.8Z" fill="#EB5757"/>
<path fill-rule="evenodd" clip-rule="evenodd" d="M546.8 559.4C548.457 559.4 549.8 560.743 549.8 562.4C549.8 563.998 548.551 565.304 546.976 565.395L546.8 565.4H518C516.343 565.4 515 564.057 515 562.4C515 560.802 516.249 559.496 517.824 559.405L518 559.4H546.8Z" fill="#EB5757"/>
<path fill-rule="evenodd" clip-rule="evenodd" d="M546.8 581C548.457 581 549.8 582.343 549.8 584C549.8 585.598 548.551 586.904 546.976 586.995L546.8 587H518C516.343 587 515 585.657 515 584C515 582.402 516.249 581.096 517.824 581.005L518 581H546.8Z" fill="#EB5757"/>
<path fill-rule="evenodd" clip-rule="evenodd" d="M546.8 624.3C548.457 624.3 549.8 625.643 549.8 627.3C549.8 628.898 548.551 630.204 546.976 630.295L546.8 630.3H518C516.343 630.3 515 628.957 515 627.3C515 625.702 516.249 624.396 517.824 624.305L518 624.3H546.8Z" fill="#EB5757"/>
<path fill-rule="evenodd" clip-rule="evenodd" d="M546.8 645.9C548.457 645.9 549.8 647.243 549.8 648.9C549.8 650.498 548.551 651.804 546.976 651.895L546.8 651.9H518C516.343 651.9 515 650.557 515 648.9C515 647.302 516.249 645.996 517.824 645.905L518 645.9H546.8Z" fill="#EB5757"/>
<path fill-rule="evenodd" clip-rule="evenodd" d="M546.8 667.5C548.457 667.5 549.8 668.843 549.8 670.5C549.8 672.098 548.551 673.404 546.976 673.495L546.8 673.5H518C516.343 673.5 515 672.157 515 670.5C515 668.902 516.249 667.596 517.824 667.505L518 667.5H546.8Z" fill="#EB5757"/>
<path fill-rule="evenodd" clip-rule="evenodd" d="M546.8 689.2C548.457 689.2 549.8 690.543 549.8 692.2C549.8 693.798 548.551 695.104 546.976 695.195L546.8 695.2H518C516.343 695.2 515 693.857 515 692.2C515 690.602 516.249 689.296 517.824 689.205L518 689.2H546.8Z" fill="#EB5757"/>
<path fill-rule="evenodd" clip-rule="evenodd" d="M546.8 710.8C548.457 710.8 549.8 712.143 549.8 713.8C549.8 715.398 548.551 716.704 546.976 716.795L546.8 716.8H518C516.343 716.8 515 715.457 515 713.8C515 712.202 516.249 710.896 517.824 710.805L518 710.8H546.8Z" fill="#EB5757"/>
<path fill-rule="evenodd" clip-rule="evenodd" d="M546.8 732.4C548.457 732.4 549.8 733.743 549.8 735.4C549.8 736.998 548.551 738.304 546.976 738.395L546.8 738.4H518C516.343 738.4 515 737.057 515 735.4C515 733.802 516.249 732.496 517.824 732.405L518 732.4H546.8Z" fill="#EB5757"/>
<path fill-rule="evenodd" clip-rule="evenodd" d="M603 588.6C595.9 587 588.6 586.1 581 586.1C527.4 586.1 484 629.5 484 683.1C484 736.7 527.4 780.1 581 780.1C588.6 780.1 595.9 779.2 603 777.6V588.6Z" fill="white"/>
<path fill-rule="evenodd" clip-rule="evenodd" d="M603.2 679.2C600.5 679.2 597.7 679.2 594.9 679.2C597.1 672.8 599.9 667.9 603.2 664.5V649.7C601.7 650.4 600.3 651.2 599.1 652.2C594.8 655.6 591.6 659.5 589.5 663.9C587.4 668.3 585.5 673.4 583.9 679.2H577.8H539.4C540 672.7 542.5 667.7 547 664.3C551.5 660.9 556.4 659.2 561.9 659.2C564.1 659.1 565.6 658.6 566.4 657.7C567.2 656.8 567.6 655.3 567.6 653.2C567.6 650.9 567.1 649.4 566.1 648.7C565.1 648 563.2 647.7 560.5 647.7C555.3 647.7 550.4 649 545.9 651.7C541.4 654.4 537.6 658.1 534.7 662.8C531.8 667.6 530 673 529.5 679.1H514.9C514.2 679.1 513.6 679.5 513.1 680.2C512.5 680.9 512.3 681.8 512.3 682.9C512.3 683.9 512.6 684.8 513.2 685.5C513.8 686.2 514.5 686.6 515.3 686.6H529.6C530 692.9 531.6 698.6 534.3 703.8C537 708.9 540.8 713 545.5 715.9C550.3 718.8 555.7 720.3 561.8 720.3C568.8 720.3 574.4 718.4 578.6 714.7C582.8 711 585.9 706.9 587.7 702.4C589.6 697.9 591.4 692.6 593.2 686.4C595.9 686.4 599.4 686.4 603.6 686.5V679.2H603.2ZM573.9 702.7C570.9 706.5 566.7 708.3 561.4 708.3C555.4 708.3 550.5 706.4 546.6 702.6C542.7 698.8 540.4 693.5 539.6 686.7C548.4 686.6 561.6 686.5 579.5 686.5H581.8C579.5 693.5 576.9 698.9 573.9 702.7Z" fill="#333333"/>
<path fill-rule="evenodd" clip-rule="evenodd" d="M769 294.9H690.5C680 294.9 671.5 302 671.5 310.7V374.2H768.8" fill="white"/>
<rect x="671" y="322.1" width="98" height="18" fill="#EB5757"/>
<path fill-rule="evenodd" clip-rule="evenodd" d="M769 498.7H690.5C680 498.7 671.5 505.8 671.5 514.5V578H768.8" fill="white"/>
<rect x="671" y="525.9" width="98" height="18" fill="#EB5757"/>
<path fill-rule="evenodd" clip-rule="evenodd" d="M770.2 371.1C771.857 371.1 773.2 372.443 773.2 374.1C773.2 375.698 771.951 377.004 770.376 377.095L770.2 377.1H648C646.343 377.1 645 375.757 645 374.1C645 372.502 646.249 371.196 647.824 371.105L648 371.1H770.2Z" fill="#EB5757"/>
<path fill-rule="evenodd" clip-rule="evenodd" d="M648 381.1C651.866 381.1 655 377.966 655 374.1C655 370.234 651.866 367.1 648 367.1C644.134 367.1 641 370.234 641 374.1C641 377.966 644.134 381.1 648 381.1Z" fill="#EB5757"/>
<path fill-rule="evenodd" clip-rule="evenodd" d="M770.2 574.9C771.857 574.9 773.2 576.243 773.2 577.9C773.2 579.498 771.951 580.804 770.376 580.895L770.2 580.9H648C646.343 580.9 645 579.557 645 577.9C645 576.302 646.249 574.996 647.824 574.905L648 574.9H770.2Z" fill="#EB5757"/>
<path fill-rule="evenodd" clip-rule="evenodd" d="M1142 781.1H782C771 781.1 762 772.1 762 761.1V93.1C762 82.1 771 73.1 782 73.1H1142C1153 73.1 1162 82.1 1162 93.1V761.1C1162 772.1 1153 781.1 1142 781.1Z" fill="#F2C94C"/>
<path fill-rule="evenodd" clip-rule="evenodd" d="M1098.6 682.1H870.5C854.7 682.1 842 669.3 842 653.6V148.1C842 132.3 854.8 119.6 870.5 119.6H1098.6C1114.4 119.6 1127.1 132.4 1127.1 148.1V653.6C1127.1 669.3 1114.3 682.1 1098.6 682.1Z" fill="white"/>
<path fill-rule="evenodd" clip-rule="evenodd" d="M991 759.1C975 759.1 962 746.1 962 730.1C962 714.1 975 701.1 991 701.1C1007 701.1 1020 714.1 1020 730.1C1020 746.1 1007 759.1 991 759.1ZM991 707.1C978.3 707.1 968 717.4 968 730.1C968 742.8 978.3 753.1 991 753.1C1003.7 753.1 1014 742.8 1014 730.1C1014 717.4 1003.7 707.1 991 707.1Z" fill="#333333"/>
<path fill-rule="evenodd" clip-rule="evenodd" d="M934 106.1C937.866 106.1 941 102.966 941 99.1C941 95.234 937.866 92.1 934 92.1C930.134 92.1 927 95.234 927 99.1C927 102.966 930.134 106.1 934 106.1Z" fill="#333333"/>
<path fill-rule="evenodd" clip-rule="evenodd" d="M1032 105.1H959C955.7 105.1 953 102.4 953 99.1V99.1C953 95.8 955.7 93.1 959 93.1H1032C1035.3 93.1 1038 95.8 1038 99.1V99.1C1038 102.4 1035.3 105.1 1032 105.1Z" fill="#333333"/>
<path fill-rule="evenodd" clip-rule="evenodd" d="M822.5 76C824.157 76 825.5 77.3431 825.5 79C825.5 80.6568 824.157 82 822.5 82C808.589 82 797.229 93.1391 797.003 106.883L797 107.3V752.8C797 766.771 808.385 778.1 822.5 778.1C824.157 778.1 825.5 779.443 825.5 781.1C825.5 782.757 824.157 784.1 822.5 784.1C805.252 784.1 791.282 770.37 791.004 753.318L791 752.8V107.3C791 90.0417 805.144 76 822.5 76Z" fill="#EB5757"/>
<path fill-rule="evenodd" clip-rule="evenodd" d="M776 498V498C772.8 498 770.3 495.4 770.3 492.3V401C770.3 397.8 772.9 395.3 776 395.3V395.3C779.2 395.3 781.7 397.9 781.7 401V492.3C781.7 495.4 779.2 498 776 498Z" fill="#EB5757"/>
<path fill-rule="evenodd" clip-rule="evenodd" d="M1067.7 314.5C1063.2 311.7 1057.4 313.1 1054.6 317.5L1031.2 355.1C1017.3 343.9 999.6 337.2 980.4 337.2C935.7 337.2 899.4 373.6 899.4 418.2C899.4 462.8 935.8 499.2 980.4 499.2C1025 499.2 1061.4 462.8 1061.4 418.2C1061.4 399.8 1055.2 382.8 1044.8 369.1L1070.7 327.5C1073.5 323.2 1072.2 317.3 1067.7 314.5ZM1055.5 418.3C1055.5 459.7 1021.8 493.3 980.5 493.3C939.2 493.3 905.5 459.6 905.5 418.3C905.5 377 939.2 343.3 980.5 343.3C998.5 343.3 1015.1 349.7 1028.1 360.4L985.7 428.5L961.2 395.8C958 391.6 952.1 390.8 947.9 393.9C943.7 397.1 942.9 403 946 407.2L978.9 450.9C980.7 453.3 983.5 454.7 986.5 454.7C986.6 454.7 986.8 454.7 986.9 454.7C990 454.6 992.9 452.9 994.5 450.2L1041.5 374.6C1050.3 387 1055.5 402 1055.5 418.3Z" fill="#333333"/>
<path fill-rule="evenodd" clip-rule="evenodd" d="M545.7 400.1H366.1V93.1C366.1 82.1 381.6 73.1 392.6 73.1H316.9C305.9 73.1 296.9 82.1 296.9 93.1V761.1C296.9 772.1 305.9 781.1 316.9 781.1H386.1C375.1 781.1 366.1 772.1 366.1 761.1V503.1H545.7C567.9 503.1 585.8 485.1 585.8 463V440.2C585.8 418 567.9 400.1 545.7 400.1Z" fill="#F2C94C"/>
<path fill-rule="evenodd" clip-rule="evenodd" d="M537.8 475.1C524.6 475.1 513.8 464.3 513.8 451.1C513.8 437.9 524.6 427.1 537.8 427.1C551 427.1 561.8 437.9 561.8 451.1C561.8 464.3 551.1 475.1 537.8 475.1ZM537.8 433.1C527.9 433.1 519.8 441.2 519.8 451.1C519.8 461 527.9 469.1 537.8 469.1C547.7 469.1 555.8 461 555.8 451.1C555.8 441.2 547.8 433.1 537.8 433.1Z" fill="#333333"/>
<path fill-rule="evenodd" clip-rule="evenodd" d="M392.4 72.3V78.3C378.16 78.3 367.809 87.8934 367.603 101.39L367.6 101.8V399.7H361.6V101.8C361.6 84.8593 374.521 72.5482 391.873 72.3037L392.4 72.3Z" fill="#EB5757"/>
<path fill-rule="evenodd" clip-rule="evenodd" d="M367.6 503V752.8C367.6 766.631 378.758 777.873 392.677 778.097L393.1 778.1V784.1C375.852 784.1 361.882 770.37 361.604 753.318L361.6 752.8V503H367.6Z" fill="#EB5757"/>
<path fill-rule="evenodd" clip-rule="evenodd" d="M1438 778.1C1439.66 778.1 1441 779.443 1441 781.1C1441 782.698 1439.75 784.004 1438.18 784.095L1438 784.1H3C1.34315 784.1 0 782.757 0 781.1C0 779.502 1.24892 778.196 2.82373 778.105L3 778.1H1438Z" fill="#EB5757"/>
</svg>
